<svg width="31" height="31" viewBox="0 0 31 31" fill="none" xmlns="http://www.w3.org/2000/svg">
<g clip-path="url(#clip0_96_5529)">
<path d="M20.3639 19.4221L19.6139 21.1096L20.1764 22.2346V22.7971L20.3639 23.5471C20.6139 23.6721 21.1514 23.9221 21.3014 23.9221C21.4514 23.9221 21.8639 24.0471 22.0514 24.1096C22.0514 24.2971 22.0139 24.7096 21.8639 24.8596C21.7139 25.0096 21.4264 25.0471 21.3014 25.0471C21.1764 25.2971 20.9264 25.8346 20.9264 25.9846C20.9264 26.1721 20.7389 26.7346 20.7389 26.9221C20.7389 27.0721 20.3639 27.7346 20.1764 28.0471L20.3639 29.7346C20.9264 29.7971 22.0889 29.9221 22.2389 29.9221H25.2389C26.2389 29.6096 28.2389 28.9471 28.2389 28.7971C28.2389 28.6471 28.9889 28.3596 29.3639 28.2346L30.1139 26.7346L29.3639 25.0471L27.3014 20.9221L26.9264 20.7346C26.6764 20.7971 26.1389 20.8846 25.9889 20.7346C25.8014 20.5471 25.2389 20.5471 25.2389 20.3596C25.2389 20.1721 24.8639 20.1721 24.8639 19.9846C24.8639 19.7971 24.6764 19.6096 24.6764 19.4221V18.6721C24.6764 18.4846 24.8639 18.2971 24.8639 18.1096C24.8639 17.9596 25.2389 17.7971 25.4264 17.7346V17.1721C25.3014 16.9221 25.0514 16.3846 25.0514 16.2346C25.0514 16.0471 24.4889 15.6721 24.3014 15.6721C24.1139 15.6721 23.5514 15.4846 23.3639 15.4846C23.2139 15.4846 22.6764 15.7346 22.4264 15.8596L21.6764 17.1721L20.3639 19.4221Z" fill="#FDC040"/>
<path d="M12.8639 11.7346L9.67639 11.5471L9.48889 12.2971V13.9846L9.67639 16.6096C9.86389 16.6721 10.3139 16.8346 10.6139 16.9846C10.9889 17.1721 12.1139 16.9846 12.3014 16.9846C12.4889 16.9846 14.9264 16.7971 15.1139 16.6096C15.3014 16.4221 15.4889 16.0471 15.6764 15.8596C15.8639 15.6721 15.8639 15.1096 15.8639 14.9221V13.4221C15.8639 13.0471 15.6764 12.4846 15.6764 12.2971C15.6764 12.1471 15.3014 11.8596 15.1139 11.7346H12.8639Z" fill="#FDC040"/>
<path d="M30.4841 26.0316L27.559 20.212C27.4973 20.0891 27.3815 20.0022 27.2464 19.9772C27.1111 19.9522 26.972 19.9919 26.8704 20.0845C26.6638 20.2728 26.395 20.3765 26.1135 20.3765C25.4915 20.3765 24.9856 19.8702 24.9856 19.248C24.9856 18.7103 25.3679 18.2448 25.8949 18.1411C26.0296 18.1145 26.1443 18.0265 26.2047 17.9032C26.2651 17.7798 26.2643 17.6353 26.2027 17.5126L25.4661 16.0464C25.1126 15.3436 24.4044 14.907 23.6177 14.9069C23.6177 14.9069 23.6176 14.9069 23.6175 14.9069C23.5415 14.9069 23.4666 14.9122 23.3922 14.9202C23.3729 13.8347 23.345 12.7477 23.3079 11.6812C23.2707 10.6037 22.9538 9.55129 22.3916 8.63768C22.2644 8.43096 21.9937 8.36651 21.787 8.49378C21.5803 8.62098 21.5159 8.89169 21.6431 9.09835C22.1256 9.8824 22.3976 10.786 22.4295 11.7117C22.4697 12.8667 22.4993 14.046 22.5184 15.2214C22.2047 15.4179 21.9437 15.6993 21.7694 16.0459L19.6194 20.3238C18.787 19.0303 17.6216 18.0269 16.2621 18.0269C13.8906 18.0269 12.1098 21.079 11.6575 23.3998H11.6291C11.3972 22.2097 10.8159 20.8277 9.98473 19.7631C9.97876 18.9257 9.97864 18.0845 9.98374 17.2416C10.4378 17.2506 10.8929 17.2565 11.3492 17.2565C12.4895 17.2565 13.6343 17.2284 14.7701 17.1725C15.5401 17.1346 16.165 16.5515 16.2561 15.786C16.379 14.7522 16.379 13.7039 16.2561 12.6702C16.165 11.9047 15.5402 11.3215 14.7704 11.2837C13.2335 11.2081 11.6771 11.184 10.1364 11.2109C10.3655 9.40668 11.4835 7.85515 13.1462 7.06999H19.3787C19.8157 7.27636 20.2236 7.54144 20.5915 7.86049C20.6746 7.93262 20.7771 7.96795 20.8792 7.96795C21.0022 7.96795 21.1245 7.91662 21.2114 7.81642C21.3704 7.63308 21.3506 7.35552 21.1673 7.19649C20.9693 7.02481 20.7608 6.86714 20.5442 6.72252C20.9242 6.4241 21.1691 5.96091 21.1691 5.44136C21.1691 4.69557 20.665 4.06574 19.9799 3.87343V2.31939C19.9797 1.3077 19.1567 0.484619 18.1449 0.484619H14.3796C13.3679 0.484619 12.5448 1.3077 12.5448 2.31939V3.87355C11.8596 4.06585 11.3556 4.69568 11.3556 5.44147C11.3556 5.96097 11.6004 6.42404 11.9803 6.72247C11.3168 7.16497 10.7412 7.73281 10.2879 8.39897C9.62783 9.36888 9.25746 10.5039 9.21685 11.6812C9.13441 14.0604 9.09568 16.4654 9.10107 18.8457C8.48595 18.3419 7.78574 18.0269 7.02454 18.0269C5.95601 18.0269 4.87477 18.6811 3.97998 19.869C3.8339 20.0628 3.87269 20.3384 4.06658 20.4844C4.26047 20.6305 4.53598 20.5917 4.68199 20.3978C5.10177 19.8406 5.96428 18.9058 7.0246 18.9058C7.85049 18.9058 8.7181 19.4842 9.4677 20.5343C10.0613 21.3659 10.5165 22.4063 10.7323 23.3998H3.31645C3.42872 22.8842 3.60726 22.3499 3.84257 21.8298C3.94259 21.6086 3.84445 21.3483 3.62331 21.2482C3.40223 21.1482 3.14184 21.2463 3.04176 21.4675C2.75318 22.1054 2.54213 22.7659 2.4206 23.3998H1.8172C1.18854 23.3998 0.677124 23.9112 0.677124 24.5399C0.677124 25.1685 1.18859 25.6799 1.8172 25.6799H2.03318C2.10613 26.3532 2.22911 27.0241 2.34941 27.6765C2.43513 28.1414 2.52379 28.6222 2.59117 29.0907C2.68246 29.7234 3.18825 30.2156 3.82142 30.2879C4.97362 30.4188 5.99855 30.4843 7.0239 30.4843C8.04772 30.4843 9.07195 30.4191 10.2233 30.2884C10.4334 30.2645 10.6289 30.194 10.8007 30.0885C11.2491 30.3483 11.7545 30.4845 12.2806 30.4845H16.2627L16.2615 30.4842C17.2872 30.4843 18.3126 30.4188 19.4654 30.2878C19.7707 30.253 20.0458 30.1198 20.2597 29.921C21.347 30.2964 22.478 30.4809 23.604 30.4809C25.8941 30.4809 28.1624 29.7201 29.9951 28.2627C30.6616 27.7332 30.8673 26.7949 30.4841 26.0316ZM13.4238 2.31939C13.4238 1.79233 13.8526 1.36354 14.3796 1.36354H18.1449C18.672 1.36354 19.1008 1.79233 19.1008 2.31939V3.81278H13.4238V2.31939ZM12.9843 4.6917H19.5403C19.9537 4.6917 20.29 5.02803 20.29 5.44142C20.29 5.85486 19.9536 6.19119 19.5403 6.19119H12.9843C12.5709 6.19119 12.2345 5.85486 12.2345 5.44142C12.2345 5.02803 12.5709 4.6917 12.9843 4.6917ZM14.7271 12.1617C15.067 12.1784 15.343 12.436 15.3832 12.7741C15.4979 13.739 15.4979 14.7174 15.3832 15.6823C15.343 16.0204 15.067 16.278 14.7268 16.2947C13.1533 16.3722 11.5625 16.3948 9.99094 16.3635C10.006 14.9382 10.0368 13.5107 10.0832 12.0911C11.6268 12.0627 13.1867 12.086 14.7271 12.1617ZM22.5544 16.4408C22.7608 16.0307 23.1581 15.7859 23.6174 15.7859H23.6175C24.0769 15.786 24.4744 16.031 24.6807 16.4412L25.1945 17.4638C24.5413 17.8013 24.1066 18.4837 24.1066 19.248C24.1066 20.3549 25.0069 21.2555 26.1135 21.2555C26.4234 21.2555 26.7249 21.1847 26.9971 21.051L29.4558 25.9428C29.4532 25.945 29.4508 25.9473 29.4482 25.9494C28.2121 26.9326 26.734 27.5902 25.1737 27.8511C23.7672 28.0864 22.3161 27.9966 20.9527 27.5944C21.0681 26.9678 21.1837 26.325 21.2535 25.6799H21.4697C22.0984 25.6799 22.6098 25.1685 22.6098 24.5399C22.6098 23.9112 22.0984 23.3998 21.4697 23.3998H20.8664C20.7329 22.7145 20.4836 21.9656 20.1373 21.2502L22.5544 16.4408ZM13.8187 20.5345C14.5684 19.4842 15.4361 18.9058 16.262 18.9058C17.088 18.9058 17.9557 19.4842 18.7053 20.5345C19.2988 21.366 19.7541 22.4063 19.9698 23.3999H12.5542C12.7698 22.4064 13.2251 21.3661 13.8187 20.5345ZM1.55604 24.54C1.55604 24.396 1.67323 24.2788 1.8172 24.2788H21.4697C21.6137 24.2788 21.7309 24.396 21.7309 24.54C21.7309 24.6839 21.6137 24.8011 21.4697 24.8011H1.8172C1.67317 24.8011 1.55604 24.6839 1.55604 24.54ZM11.3762 29.3995C11.4143 29.3014 11.4427 29.1983 11.4581 29.0907C11.4992 28.8025 11.548 28.4592 11.599 28.0929C11.6025 28.0681 11.6043 28.0544 11.6433 28.0544C11.6823 28.0544 11.6842 28.0681 11.6877 28.0926C11.7387 28.4593 11.7874 28.8026 11.8286 29.0912C11.8543 29.2698 11.9142 29.4367 11.9999 29.5867C11.7824 29.5576 11.5727 29.4946 11.3762 29.3995ZM19.3659 29.4147C17.1344 29.6683 15.3951 29.6685 13.1628 29.4153C12.9236 29.388 12.7326 29.2033 12.6986 28.9666C12.6576 28.6793 12.6091 28.3371 12.5581 27.971C12.4925 27.5026 12.1162 27.1754 11.6432 27.1755C11.1703 27.1755 10.7941 27.5026 10.7285 27.9714C10.6776 28.3371 10.629 28.6794 10.5881 28.9661C10.554 29.2033 10.363 29.388 10.124 29.4153C7.89127 29.6685 6.15201 29.6683 3.92085 29.4147C3.68442 29.3877 3.49534 29.2029 3.46106 28.9654C3.39122 28.4799 3.30098 27.9905 3.21368 27.5172C3.10217 26.9126 2.98844 26.2918 2.91754 25.68H20.3691C20.2981 26.2935 20.184 26.916 20.0723 27.5222C19.9853 27.994 19.8954 28.4818 19.8256 28.9658C19.7913 29.2032 19.6022 29.3877 19.3659 29.4147ZM29.4482 27.5748C26.9874 29.5316 23.6677 30.1133 20.6869 29.1369C20.6896 29.1217 20.6933 29.1068 20.6955 29.0914C20.7254 28.8841 20.7598 28.6743 20.7959 28.4646C21.7141 28.726 22.6671 28.8586 23.6219 28.8586C24.1893 28.8586 24.7573 28.8119 25.3187 28.7181C26.9424 28.4465 28.4842 27.7815 29.7955 26.791C29.8124 27.0868 29.6895 27.3831 29.4482 27.5748Z" fill="#BD1E51"/>
<path d="M24.027 25.8787C24.3231 26.3095 24.7692 26.599 25.2832 26.6942C25.4034 26.7165 25.5239 26.7275 25.6436 26.7275C26.0356 26.7275 26.4181 26.6095 26.7481 26.3826C27.1789 26.0865 27.4684 25.6403 27.5636 25.1264C27.6588 24.6125 27.5481 24.0922 27.252 23.6615C26.9558 23.2308 26.5097 22.9412 25.9958 22.8461C25.4817 22.7509 24.9616 22.8616 24.5309 23.1577C24.1002 23.4538 23.8106 23.8999 23.7154 24.4138C23.6202 24.9278 23.7309 25.4481 24.027 25.8787ZM24.5796 24.5739C24.632 24.2907 24.7916 24.045 25.0288 23.8819C25.2106 23.7569 25.4213 23.6919 25.6372 23.6919C25.7031 23.6919 25.7696 23.698 25.8357 23.7103C26.1188 23.7627 26.3646 23.9222 26.5278 24.1595C26.6909 24.3967 26.7518 24.6833 26.6994 24.9664C26.647 25.2496 26.4874 25.4953 26.2502 25.6584C26.0129 25.8216 25.7263 25.8825 25.4433 25.8301C25.1602 25.7777 24.9144 25.6182 24.7513 25.3809C24.5881 25.1436 24.5271 24.857 24.5796 24.5739Z" fill="#BD1E51"/>
<path d="M22.1814 23.2428C22.2691 23.2591 22.357 23.2671 22.4442 23.2671C22.73 23.2671 23.0089 23.181 23.2495 23.0157C23.5635 22.7997 23.7746 22.4745 23.8439 22.0998C23.9134 21.7251 23.8326 21.3459 23.6168 21.0318C23.4009 20.7177 23.0756 20.5066 22.701 20.4372C21.9275 20.2941 21.1816 20.8068 21.0384 21.5803C20.8951 22.3538 21.4079 23.0996 22.1814 23.2428ZM21.9026 21.7403C21.9575 21.4434 22.2439 21.2464 22.5409 21.3015C22.6847 21.3282 22.8096 21.4092 22.8925 21.5298C22.9754 21.6504 23.0064 21.796 22.9798 21.9398C22.9531 22.0837 22.8721 22.2086 22.7515 22.2914C22.6309 22.3743 22.4855 22.4053 22.3414 22.3787C22.0445 22.3236 21.8476 22.0373 21.9026 21.7403Z" fill="#BD1E51"/>
</g>
<defs>
<clipPath id="clip0_96_5529">
<rect width="30" height="30" fill="white" transform="translate(0.676392 0.484619)"/>
</clipPath>
</defs>
</svg>
