<svg width="31" height="31" viewBox="0 0 31 31" fill="none" xmlns="http://www.w3.org/2000/svg">
<g clip-path="url(#clip0_96_5507)">
<path d="M9.20288 21.8596C8.30288 21.7096 7.82788 22.0471 7.70288 22.2346L7.51538 22.4221C7.32788 22.6721 6.95288 23.2096 6.95288 23.3596V24.4846C6.95288 24.6721 6.95288 25.2346 7.14038 25.6096C7.32788 25.9846 7.32788 26.1721 7.51538 26.3596C7.70288 26.5471 7.89038 26.7346 8.07788 26.7346C8.26538 26.7346 9.20288 26.9221 9.39038 26.9221H11.4529C12.0154 26.9221 12.2029 26.7346 12.5779 26.7346C12.9529 26.7346 13.3279 26.5471 13.3279 26.3596C13.3279 26.1721 13.5154 25.9846 13.7029 25.7971C13.8904 25.6096 13.7029 25.2346 13.8904 24.9254C14.0779 24.6162 13.8904 24.4846 13.8904 24.2971V23.3596C13.8904 23.1721 13.7029 22.9846 13.7029 22.7971C13.7029 22.6096 13.3279 22.4221 13.1404 22.2346C12.9904 22.0846 12.5779 21.9221 12.3904 21.8596C11.7029 21.9221 10.1029 22.0096 9.20288 21.8596Z" fill="#FDC040"/>
<path d="M25.8904 12.1096C23.1904 13.1596 18.0154 12.5471 15.7654 12.1096L15.2029 12.4846L14.2654 13.9846L13.7029 15.2971C14.3029 15.4471 16.0779 16.9846 16.8904 17.7346L17.4529 18.8596C18.8029 19.0096 19.1404 20.1721 19.1404 20.7346L19.3279 24.6721C21.8779 25.4221 27.7654 24.2346 30.3904 23.5471C30.5404 23.2471 29.9529 20.0471 29.6404 18.4846C28.8904 16.2346 26.8279 13.2971 25.8904 12.1096Z" fill="#FDC040"/>
<path d="M28.5509 15.0788C27.6554 13.4421 26.7651 12.3844 26.4444 12.0263V9.61048L30.6048 6.19439C30.7038 6.113 30.7624 5.99247 30.7652 5.86426C30.768 5.73605 30.7146 5.61306 30.6192 5.52751L27.4714 2.70611C27.2907 2.54415 27.0128 2.55938 26.8508 2.74003C26.6888 2.92074 26.704 3.19861 26.8847 3.36062L29.6511 5.84017L26.4446 8.47307V6.67581C26.4446 6.43311 26.2479 6.23634 26.0051 6.23634C25.7624 6.23634 25.5657 6.43311 25.5657 6.67581L25.5654 11.8262C22.4276 12.3341 19.2518 12.334 16.1139 11.8261V6.67581C16.1139 6.43311 15.9172 6.23634 15.6744 6.23634C15.4317 6.23634 15.235 6.43311 15.235 6.67581V8.47325L12.0282 5.84017L15.4492 2.77343C15.9525 2.32213 16.6025 2.13456 17.2279 2.20886C17.3567 2.76212 17.6525 3.92262 18.1068 5.07872C18.8531 6.97846 19.7238 8.11417 20.6944 8.4542C20.7414 8.47067 20.7905 8.47893 20.8396 8.47893C20.8887 8.47893 20.9379 8.47067 20.9849 8.4542C21.9555 8.11417 22.8261 6.97846 23.5727 5.07878C24.0262 3.92485 24.3216 2.7674 24.4509 2.21279C24.8381 2.1665 25.238 2.21829 25.6097 2.37744C25.8331 2.47301 26.0912 2.36947 26.1867 2.1464C26.2823 1.92326 26.1788 1.66497 25.9558 1.56946C24.8268 1.0861 23.5106 1.30812 22.6023 2.13485L22.1968 2.50401C21.423 3.20857 20.2565 3.20857 19.4831 2.50401L19.0776 2.13485C17.8801 1.04473 16.068 1.03799 14.8625 2.11909L11.0601 5.52762C10.9646 5.61317 10.9113 5.73623 10.9141 5.86437C10.9168 5.99258 10.9755 6.11311 11.0745 6.1945L15.2348 9.6106V12.026C14.9467 12.3467 14.2063 13.2223 13.4171 14.5649C12.7488 14.2088 12.0419 13.8572 11.326 13.5012C10.7003 13.1901 10.0701 12.8767 9.46513 12.5584C10.0564 11.8181 10.5124 10.98 10.7123 9.99756C11.0177 8.49616 10.571 7.15501 9.48663 6.31797C8.45868 5.52446 7.04306 5.34756 5.96389 5.87779C5.38544 6.16198 4.41503 6.89959 4.41503 8.64599C4.41503 9.75146 5.11706 10.7965 6.5614 11.8409C7.01317 12.1676 7.52108 12.484 8.06169 12.7928C7.39147 13.452 6.62228 14.0388 5.89563 14.593C4.33117 15.7863 2.84688 16.9193 2.8085 18.4458C1.85139 18.6753 1.1129 19.4734 0.984345 20.4787C0.692067 22.7675 0.692067 25.0884 0.984345 27.3773C1.13201 28.5314 2.0839 29.4134 3.24785 29.4744C5.58161 29.5961 7.93179 29.6569 10.282 29.6569C12.6322 29.6569 14.9825 29.596 17.3164 29.4744C18.4806 29.4133 19.4322 28.5313 19.5792 27.3773C19.6667 26.693 19.7275 26.0058 19.7627 25.3175C20.1202 25.3282 20.4808 25.334 20.8396 25.334C26.5768 25.334 30.3199 23.9916 30.4764 23.9345C30.6498 23.8711 30.7652 23.7062 30.7652 23.5216C30.7653 19.8886 29.5612 16.9251 28.5509 15.0788ZM18.8914 3.1536C20.0019 4.1655 21.6774 4.1655 22.7886 3.15372L23.1941 2.78463C23.2765 2.70962 23.3636 2.64159 23.4545 2.58054C23.3019 3.16275 23.0677 3.96112 22.7549 4.75714C22.0223 6.62126 21.3306 7.31978 20.8398 7.56302C20.349 7.31978 19.6573 6.62126 18.9249 4.75714C18.6121 3.961 18.3779 3.1621 18.2253 2.57966C18.3158 2.64077 18.403 2.70898 18.486 2.78457L18.8914 3.1536ZM5.2942 8.64575C5.2942 7.69075 5.65984 7.00629 6.35168 6.66638C6.64103 6.52422 6.97169 6.45526 7.31201 6.45526C7.88075 6.45526 8.47632 6.64798 8.94977 7.01344C9.42516 7.38037 10.1744 8.23324 9.85122 9.82207C9.67408 10.693 9.2407 11.4507 8.67513 12.13C6.77574 11.0657 5.2942 9.93563 5.2942 8.64575ZM3.29367 19.2597C4.07704 19.219 4.86071 19.185 5.62292 19.1586C5.86551 19.1502 6.05531 18.9468 6.04687 18.7042C6.03843 18.4616 5.83657 18.2726 5.59245 18.2802C4.97087 18.3017 4.33504 18.3285 3.69681 18.3596C3.81002 17.29 5.03409 16.3554 6.42885 15.2917C7.2482 14.6667 8.118 14.0032 8.86563 13.235C9.53907 13.5939 10.2422 13.9436 10.9348 14.288C11.628 14.6327 12.3268 14.9802 12.9896 15.3338C12.5542 16.161 12.126 17.1237 11.7716 18.2082C10.2933 18.1917 8.81735 18.1981 7.35245 18.2302C7.10974 18.2356 6.91737 18.4366 6.9227 18.6793C6.92803 18.922 7.12802 19.1163 7.37167 19.109C10.6478 19.0371 13.9783 19.0878 17.2708 19.2597C18.01 19.298 18.6143 19.8573 18.7075 20.5899C18.7692 21.0722 18.8167 21.556 18.8515 22.0407C18.816 22.527 18.7678 23.0099 18.7075 23.477C18.6143 24.209 18.0099 24.768 17.2701 24.8064C16.275 24.8584 15.2753 24.8989 14.2898 24.9285C14.3109 24.3079 14.2972 23.6847 14.2475 23.0676C14.1803 22.233 13.5032 21.5693 12.6727 21.5239C11.2506 21.4461 9.80856 21.446 8.38684 21.5239C7.55624 21.5693 6.87922 22.233 6.81196 23.0676C6.76186 23.6894 6.74832 24.3174 6.77012 24.9427C5.61279 24.9119 4.44602 24.8668 3.29367 24.8064C2.55407 24.7681 1.9496 24.209 1.85643 23.4768C1.79748 23.0152 1.74914 22.534 1.71234 22.046C1.74715 21.5596 1.79461 21.074 1.85643 20.5899C1.95007 19.8575 2.55454 19.298 3.29367 19.2597ZM13.763 15.7602C15.1867 16.5749 16.337 17.4272 16.7236 18.3538C15.3837 18.2898 14.0389 18.2454 12.6945 18.2213C13.0113 17.3039 13.3841 16.479 13.763 15.7602ZM13.3714 25.6088C13.3393 26.0073 13.0182 26.324 12.6246 26.3456C12.6246 26.3456 12.6246 26.3456 12.6246 26.3456C11.2345 26.4216 9.82496 26.4216 8.43477 26.3456C8.04118 26.324 7.72014 26.0073 7.68802 25.6088C7.62199 24.7891 7.62199 23.9579 7.68802 23.1383C7.72014 22.7397 8.04118 22.423 8.43483 22.4015C9.12984 22.3634 9.82977 22.3444 10.5297 22.3444C11.2296 22.3444 11.9296 22.3634 12.6246 22.4015C13.0182 22.423 13.3393 22.7397 13.3714 23.1383C13.4374 23.9579 13.4374 24.7891 13.3714 25.6088ZM17.2706 28.5964C12.6334 28.8382 7.93102 28.8382 3.29397 28.5964C2.55472 28.5576 1.95007 27.998 1.85643 27.2657C1.75951 26.5066 1.69658 25.7439 1.66611 24.98C2.07546 25.3905 2.63195 25.6523 3.24797 25.6842C4.43518 25.7464 5.63793 25.7926 6.83006 25.8236C6.95891 26.5893 7.6047 27.1804 8.38678 27.2232C9.09779 27.2621 9.81377 27.2816 10.5297 27.2816C11.2456 27.2816 11.9617 27.2621 12.6726 27.2232C13.4594 27.1802 14.1082 26.5821 14.2314 25.8096C15.2507 25.7796 16.2858 25.738 17.3156 25.6842C17.932 25.6523 18.4887 25.3903 18.8981 24.9798C18.8676 25.7437 18.8046 26.5066 18.7075 27.2659C18.6142 27.9981 18.0099 28.5576 17.2706 28.5964ZM28.444 23.5985C28.3536 22.2773 28.1866 20.9609 27.9457 19.678C27.901 19.4395 27.6715 19.2825 27.4327 19.3272C27.1942 19.372 27.0371 19.6017 27.0819 19.8402C27.3244 21.1323 27.4895 22.4596 27.5753 23.791C27.2369 23.8603 26.8532 23.9323 26.4286 24.0024C26.3754 22.235 26.1868 20.4752 25.8658 18.7638C25.821 18.5253 25.5913 18.3683 25.3529 18.4129C25.1143 18.4577 24.9572 18.6873 25.002 18.9258C25.3209 20.6267 25.506 22.377 25.5533 24.1346C24.2429 24.3144 22.6427 24.4549 20.8397 24.4549C20.4911 24.4549 20.1409 24.4494 19.7935 24.439C19.8183 23.1164 19.7473 21.7922 19.5793 20.4788C19.4475 19.4439 18.669 18.6288 17.6708 18.4272C17.3482 17.0843 15.9694 16.0056 14.1922 14.9914C14.8946 13.8026 15.5518 13.0006 15.8387 12.6716C17.4986 12.9478 19.1693 13.0863 20.8399 13.0863C22.5104 13.0863 24.1809 12.9479 25.8408 12.6717C26.1706 13.0488 26.9869 14.0458 27.7941 15.5272C28.7191 17.2245 29.8163 19.9148 29.883 23.2056C29.5972 23.2958 29.1071 23.4401 28.444 23.5985Z" fill="#BD1E51"/>
<path d="M12.2932 23.068C11.7062 23.0405 11.1129 23.0266 10.5297 23.0266C9.94645 23.0266 9.35311 23.0405 8.76609 23.068C8.5419 23.0785 8.36166 23.2562 8.34795 23.4803C8.31191 24.0729 8.31191 24.674 8.34795 25.2667C8.3616 25.4907 8.5419 25.6685 8.76609 25.679C9.35264 25.7064 9.94604 25.7203 10.5297 25.7203C11.1133 25.7203 11.7067 25.7064 12.2932 25.679C12.5174 25.6685 12.6977 25.4907 12.7114 25.2667C12.7474 24.674 12.7474 24.073 12.7114 23.4803C12.6977 23.2562 12.5175 23.0785 12.2932 23.068ZM11.8524 24.8175C10.9691 24.8492 10.0902 24.8492 9.20703 24.8175C9.19759 24.5219 9.19759 24.2251 9.20703 23.9295C10.0908 23.8977 10.9686 23.8977 11.8524 23.9295C11.8618 24.2251 11.8618 24.5219 11.8524 24.8175Z" fill="#BD1E51"/>
</g>
<defs>
<clipPath id="clip0_96_5507">
<rect width="30" height="30" fill="white" transform="translate(0.765381 0.484619)"/>
</clipPath>
</defs>
</svg>
