<svg width="29" height="31" viewBox="0 0 29 31" fill="none" xmlns="http://www.w3.org/2000/svg">
<g clip-path="url(#clip0_96_5562)">
<rect x="12.4917" y="21.0966" width="11.25" height="9" rx="4.5" fill="#FDC040"/>
<path d="M1.6167 3.65906L1.9917 4.59656L3.1167 4.22156L5.3667 4.03406L8.9292 3.84656L12.6792 4.03406L19.0542 4.59656L19.6167 4.03406L19.9917 3.09656C20.0542 2.84656 20.1792 2.30906 20.1792 2.15906C20.1792 2.00906 19.6792 1.97156 19.4292 1.97156L18.8667 2.15906L18.3042 2.34656H17.1792C16.9917 2.15906 16.5792 1.78406 16.4292 1.78406C16.2792 1.78406 15.9917 1.53406 15.8667 1.40906H14.9292L14.3667 1.97156L13.6167 2.34656H12.8667L11.9292 1.78406L10.9917 1.22156L10.0542 1.40906L9.4917 1.97156L8.5542 2.34656L7.6167 2.15906C7.4292 2.09656 7.0167 1.97156 6.8667 1.97156C6.7167 1.97156 6.5542 1.59656 6.4917 1.40906H5.9292L5.1792 1.59656C5.0542 1.72156 4.7667 1.97156 4.6167 1.97156C4.4292 1.97156 4.0542 2.15906 4.0542 2.34656C4.0542 2.53406 3.4917 2.34656 3.3042 2.34656C3.1167 2.34656 2.9292 2.34656 2.7417 2.15906C2.5917 2.00906 2.3042 1.97156 2.1792 1.97156H1.4292L1.2417 2.72156L1.6167 3.65906Z" fill="#FDC040"/>
<path d="M10.6683 20.1091C12.6565 20.1091 14.5305 19.528 15.9453 18.4728C17.3986 17.3888 18.1989 15.9356 18.1989 14.3807C18.1989 12.8258 17.3986 11.3726 15.9453 10.2886C14.5305 9.23343 12.6565 8.65234 10.6683 8.65234C8.68013 8.65234 6.80615 9.23343 5.39137 10.2886C3.9381 11.3726 3.1377 12.8258 3.1377 14.3807C3.1377 15.9356 3.93804 17.3888 5.39137 18.4728C6.80615 19.528 8.68013 20.1091 10.6683 20.1091ZM4.01662 14.3807C4.01662 11.7067 7.00056 9.53127 10.6683 9.53127C14.3361 9.53127 17.32 11.7067 17.32 14.3807C17.32 17.0547 14.3361 19.2301 10.6683 19.2301C7.00056 19.2301 4.01662 17.0547 4.01662 14.3807Z" fill="#BD1E51"/>
<path d="M27.1873 26.6114C27.5533 26.3274 27.7525 25.9769 27.7525 25.5936C27.7525 25.2105 27.5534 24.86 27.1873 24.576C27.5077 24.3538 27.7251 24.0969 27.8367 23.8076C27.934 23.5553 27.9961 23.149 27.7389 22.6456C27.5385 22.2534 27.221 21.999 26.8207 21.9096C26.1795 21.7665 25.3305 22.0553 24.2923 22.7678C23.8019 21.4323 22.5527 20.4761 21.0558 20.4083C20.7418 20.3941 20.427 20.383 20.1118 20.3732C20.4146 15.1422 20.3186 9.84257 19.8252 4.6094C19.9876 4.34778 20.2984 3.76851 20.4934 2.90506C20.6109 2.38532 20.3897 1.87408 19.9301 1.60261C19.4775 1.33536 18.9318 1.38751 18.5399 1.73556C18.3432 1.91029 18.1574 2.01857 17.839 2.01857C17.4208 2.01857 17.234 1.83546 16.9514 1.55831C16.628 1.24114 16.2256 0.846558 15.4484 0.846558C14.6713 0.846558 14.269 1.24114 13.9456 1.55819C13.663 1.83535 13.4762 2.01846 13.0582 2.01846C12.64 2.01846 12.4533 1.83535 12.1707 1.55819C11.8473 1.24114 11.4449 0.846558 10.6678 0.846558C9.89069 0.846558 9.48832 1.24114 9.16505 1.55819C8.88239 1.83535 8.69564 2.01846 8.27757 2.01846C7.8595 2.01846 7.67281 1.83535 7.39009 1.55819C7.06682 1.24114 6.66445 0.846558 5.88737 0.846558C5.11034 0.846558 4.70803 1.24114 4.38476 1.55819C4.1021 1.83535 3.91542 2.01846 3.49746 2.01846C3.17917 2.01846 2.99331 1.91017 2.79666 1.7355C2.40501 1.38751 1.8595 1.3353 1.40673 1.60243C0.947057 1.87378 0.725919 2.38497 0.843344 2.9047C1.03846 3.76851 1.34943 4.3479 1.51185 4.60946C1.43586 5.4152 1.36765 6.23694 1.30982 7.05686C1.29271 7.29897 1.47511 7.50909 1.71723 7.52614C1.96046 7.54302 2.16946 7.36079 2.18657 7.11867C2.24042 6.35542 2.30288 5.58999 2.37279 4.83816C7.87918 4.17516 13.4579 4.17516 18.9646 4.83816C19.4429 9.98959 19.5322 15.2043 19.2327 20.352C17.8435 20.3276 16.4492 20.3457 15.0682 20.4082C13.5713 20.4761 12.3221 21.4322 11.8318 22.7677C10.7936 22.0552 9.94442 21.7663 9.30327 21.9095C8.90301 21.9988 8.58555 22.2533 8.38509 22.6456C8.12792 23.1489 8.18997 23.5552 8.28724 23.8074C8.36945 24.0205 8.50949 24.2158 8.70525 24.3928C6.6024 24.3334 4.47699 24.1764 2.37279 23.9228C1.90842 18.9222 1.80922 13.8581 2.07805 8.86574C2.09112 8.62339 1.9052 8.41632 1.66285 8.40331C1.41904 8.38995 1.21349 8.57616 1.20036 8.81851C0.925669 13.9194 1.03255 19.0938 1.51666 24.2012C1.35552 24.4591 1.04034 25.0412 0.843519 25.9129C0.725861 26.4328 0.946998 26.9442 1.40685 27.2157C1.85944 27.483 2.40519 27.4307 2.79666 27.0828C2.9936 26.908 3.17958 26.7998 3.49757 26.7998C3.91577 26.7998 4.10257 26.9829 4.38529 27.2601C4.70867 27.5771 5.1111 27.9717 5.88819 27.9717C6.66539 27.9717 7.06782 27.5771 7.39121 27.2601C7.67387 26.9829 7.86073 26.7998 8.27886 26.7998C8.4206 26.7998 8.53592 26.8213 8.63664 26.8597C8.47656 27.0191 8.35931 27.1926 8.28706 27.3799C8.1898 27.6321 8.12774 28.0384 8.38492 28.5418C8.58537 28.934 8.90284 29.1884 9.3031 29.2778C9.40962 29.3016 9.52183 29.3134 9.63978 29.3134C10.2315 29.3134 10.9659 29.0131 11.8314 28.4191C12.3217 29.7549 13.5709 30.7112 15.068 30.779C16.0614 30.824 17.0616 30.8465 18.062 30.8465C19.0621 30.8465 20.0625 30.824 21.0557 30.779C22.5528 30.7111 23.802 29.7549 24.2923 28.4191C25.1578 29.0131 25.8921 29.3134 26.4839 29.3134C26.6018 29.3134 26.7141 29.3015 26.8206 29.2777C27.2208 29.1884 27.5383 28.9339 27.7388 28.5417C27.9959 28.0383 27.9339 27.632 27.8365 27.3798C27.7251 27.0904 27.5077 26.8335 27.1873 26.6114ZM2.16255 3.97887C2.02737 3.72831 1.83389 3.3008 1.70065 2.71105C1.6523 2.497 1.80553 2.38766 1.85358 2.3593C1.91165 2.32502 2.06305 2.25946 2.213 2.39264C2.47755 2.62761 2.86264 2.89738 3.49746 2.89738C4.27448 2.89738 4.6768 2.5028 5.00012 2.18574C5.28273 1.90859 5.46947 1.72548 5.88743 1.72548C6.30544 1.72548 6.49213 1.90859 6.77485 2.18574C7.09805 2.5028 7.50048 2.89738 8.27757 2.89738C9.05466 2.89738 9.45709 2.5028 9.78035 2.18574C10.063 1.90859 10.2498 1.72548 10.6678 1.72548C11.0858 1.72548 11.2726 1.90859 11.5553 2.18574C11.8786 2.5028 12.2811 2.89738 13.0582 2.89738C13.8352 2.89738 14.2376 2.5028 14.5609 2.18574C14.8436 1.90859 15.0303 1.72548 15.4484 1.72548C15.8666 1.72548 16.0533 1.90859 16.336 2.18574C16.6595 2.5028 17.0619 2.89738 17.839 2.89738C18.4738 2.89738 18.859 2.62767 19.1237 2.39264C19.2734 2.25951 19.4251 2.32497 19.4833 2.35936C19.5314 2.38778 19.6846 2.49712 19.6362 2.71122C19.5029 3.30116 19.3093 3.72872 19.1745 3.97881C13.5285 3.29043 7.80799 3.29043 2.16255 3.97887ZM20.53 29.9202C19.9383 29.9426 19.3447 29.9575 18.7504 29.9637C19.0131 28.0359 19.5008 26.0898 20.2034 24.171C20.2869 23.9431 20.1698 23.6907 19.9419 23.6072C19.7139 23.5238 19.4616 23.6409 19.3781 23.8688C18.639 25.887 18.13 27.9364 17.8629 29.9665C17.2721 29.9646 16.6818 29.9548 16.0928 29.9371C16.6885 25.6055 18.2772 22.2755 18.8259 21.2242C19.3788 21.2306 19.9311 21.2447 20.4817 21.2651C20.3547 21.5246 20.205 21.843 20.0428 22.2135C19.9455 22.4358 20.0468 22.695 20.2691 22.7923C20.3265 22.8175 20.3863 22.8294 20.4452 22.8294C20.6144 22.8294 20.7757 22.731 20.8479 22.566C21.0795 22.0372 21.2835 21.6201 21.429 21.3361C21.9495 21.4383 22.4152 21.6853 22.7833 22.0339C22.0852 23.5968 20.9928 26.4609 20.53 29.9202ZM6.77602 26.6324C6.4933 26.9095 6.30644 27.0927 5.88831 27.0927C5.47017 27.0927 5.28337 26.9096 5.00071 26.6324C4.67727 26.3154 4.27484 25.9208 3.49769 25.9208C2.86346 25.9208 2.47826 26.1904 2.21317 26.4255C2.06329 26.5586 1.91188 26.4932 1.85387 26.4589C1.80571 26.4304 1.65242 26.321 1.70094 26.1066C1.84414 25.4724 2.05737 25.0253 2.19249 24.7851C4.262 25.0368 6.35244 25.1983 8.42312 25.2646C8.38943 25.3709 8.37167 25.4808 8.37167 25.5937C8.37167 25.7077 8.38972 25.8188 8.42418 25.9262C8.37712 25.923 8.32908 25.9208 8.27909 25.9208C7.50183 25.9208 7.0994 26.3154 6.77602 26.6324ZM9.49476 28.42C9.39767 28.3983 9.27269 28.3471 9.1678 28.1418C9.04915 27.9095 9.0764 27.7762 9.10733 27.6961C9.19833 27.4603 9.53021 27.2236 10.0419 27.0297C10.2142 26.9644 10.3276 26.7985 10.3256 26.6141C10.3237 26.4298 10.2069 26.2663 10.0332 26.2046C9.49547 26.0137 9.2506 25.7541 9.2506 25.5936C9.2506 25.4331 9.49552 25.1735 10.0332 24.9826C10.2069 24.9209 10.3237 24.7574 10.3256 24.573C10.3275 24.3887 10.2142 24.2228 10.0419 24.1575C9.53021 23.9636 9.19833 23.727 9.10733 23.4911C9.07645 23.411 9.04915 23.2777 9.1678 23.0455C9.27269 22.8402 9.39767 22.7889 9.49476 22.7673C9.70178 22.721 10.313 22.7271 11.6237 23.6989C11.6198 23.743 11.616 23.787 11.6136 23.8316C11.5519 25.0007 11.5519 26.1863 11.6136 27.3555C11.616 27.4 11.6198 27.4441 11.6237 27.4881C10.3131 28.46 9.70207 28.4661 9.49476 28.42ZM12.4912 23.878C12.5658 22.4647 13.6908 21.3505 15.108 21.2863C15.1225 21.2857 15.1372 21.2853 15.1517 21.2846C14.5487 22.5237 13.4227 25.129 12.7911 28.4225C12.6182 28.0869 12.5124 27.7102 12.4912 27.3094C12.4312 26.1709 12.4312 25.0164 12.4912 23.878ZM13.5256 29.3132C14.1773 25.3077 15.6451 22.2278 16.1528 21.2484C16.7151 21.232 17.2787 21.2228 17.8427 21.2209C17.149 22.6309 15.7541 25.8531 15.2103 29.9051C15.1762 29.9036 15.1421 29.9025 15.108 29.901C14.5091 29.8739 13.9629 29.6587 13.5256 29.3132ZM23.6328 27.3093C23.5656 28.5828 22.6453 29.6131 21.4271 29.8514C21.8439 26.9021 22.7248 24.414 23.381 22.8635C23.5252 23.1737 23.6137 23.5159 23.6328 23.8779C23.6928 25.0164 23.6928 26.1709 23.6328 27.3093ZM26.9563 28.1418C26.8514 28.3471 26.7264 28.3983 26.6293 28.42C26.4222 28.4661 25.811 28.4601 24.5003 27.4883C24.5043 27.4442 24.5081 27.4001 24.5105 27.3556C24.5722 26.1864 24.5722 25.0008 24.5105 23.8317C24.5081 23.7872 24.5043 23.7431 24.5003 23.699C25.8109 22.7272 26.422 22.7211 26.6293 22.7674C26.7264 22.7891 26.8514 22.8403 26.9563 23.0455C27.0749 23.2778 27.0476 23.4111 27.0167 23.4911C26.9257 23.727 26.5938 23.9637 26.0822 24.1575C25.9098 24.2228 25.7965 24.3888 25.7984 24.5731C25.8003 24.7574 25.9171 24.921 26.0908 24.9826C26.6286 25.1735 26.8735 25.4332 26.8735 25.5936C26.8735 25.7541 26.6286 26.0138 26.0908 26.2047C25.9171 26.2663 25.8003 26.4299 25.7984 26.6142C25.7964 26.7985 25.9098 26.9645 26.0822 27.0298C26.5938 27.2236 26.9257 27.4603 27.0167 27.6962C27.0476 27.7762 27.0749 27.9095 26.9563 28.1418Z" fill="#BD1E51"/>
<path d="M7.72808 12.9302C9.67929 12.6711 11.6577 12.6711 13.6088 12.9302C13.6284 12.9328 13.6479 12.9341 13.6672 12.9341C13.8842 12.9341 14.0729 12.7734 14.1023 12.5525C14.1343 12.3119 13.9651 12.0909 13.7245 12.059C11.6968 11.7897 9.64033 11.7897 7.61236 12.059C7.37177 12.0909 7.2026 12.3119 7.2346 12.5525C7.26659 12.793 7.48749 12.9621 7.72808 12.9302Z" fill="#BD1E51"/>
<path d="M14.1023 16.3233C14.0703 16.0828 13.8492 15.9138 13.6088 15.9456C11.6577 16.2047 9.67929 16.2047 7.72808 15.9456C7.48761 15.9136 7.26653 16.0828 7.2346 16.3233C7.2026 16.5639 7.37177 16.7849 7.61236 16.8168C8.62628 16.9515 9.6473 17.0188 10.6684 17.0188C11.6895 17.0188 12.7106 16.9515 13.7244 16.8168C13.9652 16.7849 14.1343 16.5639 14.1023 16.3233Z" fill="#BD1E51"/>
<path d="M15.2928 14.4379C15.2928 14.1952 15.096 13.9984 14.8533 13.9984H6.48365C6.24089 13.9984 6.04419 14.1952 6.04419 14.4379C6.04419 14.6806 6.24089 14.8773 6.48365 14.8773H14.8533C15.096 14.8773 15.2928 14.6806 15.2928 14.4379Z" fill="#BD1E51"/>
</g>
<defs>
<clipPath id="clip0_96_5562">
<rect width="27.75" height="30" fill="white" transform="translate(0.491699 0.846558)"/>
</clipPath>
</defs>
</svg>
