<svg width="31" height="30" viewBox="0 0 31 30" fill="none" xmlns="http://www.w3.org/2000/svg">
<g clip-path="url(#clip0_96_5593)">
<path d="M9.48889 26.0625L6.86389 26.625L6.30139 27L5.73889 27.75L5.36389 28.3125L6.48889 28.6875C7.05139 28.875 7.80139 29.0625 8.17639 29.25C8.47639 29.4 11.4264 29.4375 12.8639 29.4375C19.1639 29.2875 23.9889 24.875 25.6139 22.6875L27.8639 18.9375L28.8014 15.375L29.1764 10.3125C28.8639 9 28.2389 6.3375 28.2389 6.1875C28.2389 6.0375 27.8639 5.5 27.6764 5.25L26.5514 5.4375L26.1764 6.75V7.125C26.1139 7.5 25.9889 8.2875 25.9889 8.4375C25.9889 8.5875 25.4889 9.875 25.2389 10.5L24.3014 13.125L22.4264 16.3125L19.6139 19.875L16.9889 22.3125L13.0514 24.5625L9.48889 26.0625Z" fill="#FDC040"/>
<path d="M28.4608 5.1107L27.3914 1.31457C27.2437 0.7905 26.7986 0.41414 26.2573 0.355702L25.4441 0.267898C25.0705 0.227455 24.6958 0.348375 24.4161 0.59936C24.1364 0.850344 23.9759 1.20988 23.9756 1.58571L23.9738 5.03919C23.5284 6.62727 22.94 8.17034 22.2201 9.64976C21.9302 8.98156 21.578 8.33768 21.1645 7.72787C20.7439 7.10849 20.276 6.53156 19.7738 6.01317C18.8119 5.02008 17.3435 4.681 16.0325 5.1495C15.1166 5.47656 14.1661 5.92742 13.2066 6.48877C13.1627 5.00882 12.8185 3.74827 12.514 2.90851C12.1235 1.83107 11.5871 0.867636 11.1139 0.394152C10.4483 -0.271408 9.27298 -0.0236474 8.63426 0.614834C8.09619 1.15279 7.80968 2.12297 8.773 3.0867C9.3027 3.61639 9.74201 4.71552 10.0357 6.22624C9.23394 5.78587 8.44154 5.42369 7.67382 5.14956C6.3635 4.68123 4.89487 5.0202 3.93261 6.01306C3.63538 6.31967 3.34782 6.64972 3.07808 6.99396C2.92832 7.18504 2.96185 7.46141 3.15293 7.61111C3.34407 7.76081 3.62031 7.7274 3.77007 7.53626C4.02088 7.21622 4.28793 6.90967 4.56388 6.62504C5.28677 5.87912 6.39135 5.62497 7.37805 5.97754C8.25691 6.29136 9.17328 6.72762 10.1018 7.27413C11.182 7.9098 12.5241 7.9098 13.6045 7.27413C14.5328 6.72768 15.4491 6.29147 16.3282 5.97754C17.3153 5.6248 18.4198 5.87901 19.1423 6.62499C19.6093 7.10714 20.045 7.6444 20.437 8.22169C20.9607 8.99404 21.3792 9.82454 21.6857 10.692C20.4085 13.0575 18.7872 15.2406 16.8693 17.1585C13.9699 20.0584 10.4606 22.2823 6.6333 23.6604C4.23453 22.1762 2.51497 19.8672 1.78136 17.1357C1.0304 14.3396 1.40025 11.429 2.82287 8.93988C2.94332 8.72911 2.87011 8.46054 2.65934 8.34009C2.44862 8.21964 2.18005 8.2929 2.05954 8.50362C0.521162 11.1953 0.12083 14.3419 0.932398 17.3636C1.66255 20.0823 3.29753 22.4135 5.57767 24.0165C5.32662 24.0955 5.07452 24.1714 4.82108 24.2432C4.82014 24.2434 4.8192 24.2438 4.81826 24.244C4.8178 24.2441 4.81733 24.2443 4.81686 24.2444C4.81657 24.2445 4.81633 24.2447 4.81604 24.2448C4.72864 24.2698 4.65022 24.3212 4.5926 24.3936L3.05018 26.3323C2.91255 26.5053 2.92474 26.7535 3.07866 26.9121L4.81891 28.706C4.86316 28.7516 4.9165 28.7862 4.97459 28.8089C4.97599 28.8095 4.97717 28.8104 4.97863 28.811C7.05972 29.601 9.25252 30 11.4572 30C12.6891 30 13.9249 29.8754 15.1465 29.6248C18.6426 28.9077 21.8305 27.1889 24.3655 24.6542C26.1879 22.8318 27.577 20.6975 28.4941 18.3108C28.5812 18.0842 28.4681 17.8299 28.2414 17.7428C28.0146 17.6556 27.7604 17.7688 27.6734 17.9954C26.8007 20.2665 25.4787 22.2976 23.7438 24.0325C21.3309 26.4452 18.2969 28.0811 14.9699 28.7635C11.9465 29.3837 8.8342 29.193 5.9256 28.2156L7.19019 26.9121C7.35748 26.7397 7.35537 26.465 7.18562 26.2952L5.76863 24.8778C10.169 23.5058 14.2092 21.0626 17.4913 17.78C20.8999 14.3713 23.4021 10.1497 24.742 5.5527L27.7355 5.6755C29.0025 9.07481 29.172 12.8599 28.209 16.3675C28.1447 16.6016 28.2825 16.8435 28.5166 16.9078C28.7506 16.9722 28.9926 16.8344 29.0569 16.6003C30.0928 12.8267 29.8807 8.74757 28.4608 5.1107ZM11.0163 6.7319C10.6933 4.65345 10.1483 3.2184 9.39496 2.46498C8.94773 2.01758 8.89973 1.59281 9.2561 1.23655C9.61687 0.875724 10.2408 0.764299 10.4922 1.01569C11.1379 1.66191 12.3368 4.0652 12.3319 6.82609C11.8946 6.90868 11.4408 6.87773 11.0163 6.7319ZM5.13437 27.7685L3.97874 26.5773L4.97394 25.3265L6.25771 26.6106L5.13437 27.7685ZM25.0033 1.25373C25.099 1.16791 25.2222 1.12812 25.3497 1.14201L26.1629 1.22981C26.3453 1.24951 26.4953 1.37635 26.5451 1.55301L27.4553 4.78404L24.8532 4.6773L24.8548 1.58618C24.855 1.45758 24.9077 1.33954 25.0033 1.25373Z" fill="#BD1E51"/>
<path d="M25.7208 6.66997C25.0604 11.3889 22.7033 15.981 19.0837 19.6007C16.0714 22.6129 12.4166 24.7443 8.51431 25.7644C8.27939 25.8258 8.13877 26.066 8.2002 26.3009C8.25184 26.4985 8.43009 26.6294 8.62521 26.6294C8.66202 26.6294 8.69942 26.6247 8.73664 26.615C12.7899 25.5554 16.5828 23.3449 19.7055 20.2223C23.4593 16.4685 25.9049 11.6987 26.5916 6.79177C26.6252 6.55133 26.4576 6.32913 26.2171 6.29548C25.9769 6.2619 25.7544 6.42947 25.7208 6.66997Z" fill="#BD1E51"/>
</g>
<defs>
<clipPath id="clip0_96_5593">
<rect width="30" height="30" fill="white" transform="translate(0.113892)"/>
</clipPath>
</defs>
</svg>
