<svg width="215" height="70" viewBox="0 0 215 70" fill="none" xmlns="http://www.w3.org/2000/svg">
<ellipse opacity="0.8" cx="60.4431" cy="26.6666" rx="13.5188" ry="19.377" transform="rotate(5.91321 60.4431 26.6666)" fill="#FDC040"/>
<ellipse cx="41.0546" cy="32.7057" rx="13.5188" ry="19.377" transform="rotate(-18.8509 41.0546 32.7057)" fill="#FDC040"/>
<path d="M27 39H75.0709C75.4546 39.1667 76.337 39.8 76.7973 41C77.3728 42.5 79 64.5 51.5 60C29.8624 60 24.8134 59.3333 25.0052 59C29 58 29.5 54 30 51C30.5 48 27 39 27 39Z" fill="#D33467"/>
<path d="M63.1171 18.4323C62.4859 18.4323 61.9745 18.9439 61.9745 19.5749V19.7574C61.9745 20.3886 62.4859 20.9 63.1171 20.9C63.7483 20.9 64.2597 20.3886 64.2597 19.7574V19.5749C64.2597 18.9437 63.7483 18.4323 63.1171 18.4323Z" fill="#253D4E"/>
<path d="M66.0847 23.5298C65.4536 23.5298 64.9421 24.0412 64.9421 24.6723V24.8548C64.9421 25.4859 65.4536 25.9974 66.0847 25.9974C66.7159 25.9974 67.2273 25.486 67.2273 24.8548V24.6723C67.2273 24.0412 66.7159 23.5298 66.0847 23.5298Z" fill="#253D4E"/>
<path d="M41.0669 22.4568L40.9823 22.2949C40.6903 21.7353 39.9997 21.5185 39.4408 21.8107C38.8813 22.1028 38.6646 22.7929 38.9566 23.3523L39.0412 23.5142C39.2448 23.9048 39.6429 24.1285 40.0549 24.1285C40.2331 24.1285 40.4138 24.0867 40.5827 23.9984C41.1421 23.7063 41.3589 23.0162 41.0669 22.4568Z" fill="#253D4E"/>
<path d="M46.0569 25.6016L45.9723 25.4397C45.6803 24.8801 44.9899 24.6633 44.4308 24.9555C43.8713 25.2476 43.6546 25.9377 43.9466 26.4971L44.0312 26.6591C44.2348 27.0497 44.6328 27.2733 45.0449 27.2733C45.2231 27.2733 45.4038 27.2316 45.5727 27.1432C46.1321 26.8512 46.3489 26.161 46.0569 25.6016Z" fill="#253D4E"/>
<path d="M38.9474 48.3339L35.5489 44.9352C35.1026 44.489 34.3791 44.4889 33.9332 44.9351C33.4868 45.3813 33.4868 46.1048 33.933 46.5508L37.3315 49.9495C37.5547 50.1727 37.8469 50.2842 38.1394 50.2842C38.4317 50.2842 38.7242 50.1727 38.9473 49.9497C39.3936 49.5034 39.3936 48.78 38.9474 48.3339Z" fill="#253D4E"/>
<path d="M49.0454 46.2046C48.6796 45.6906 47.9664 45.5702 47.452 45.9364L35.5912 54.3806C35.0772 54.7465 34.9571 55.46 35.3231 55.974C35.5459 56.2872 35.8975 56.454 36.2548 56.454C36.4839 56.454 36.7155 56.3852 36.9164 56.2421L48.7772 47.7979C49.2912 47.432 49.4113 46.7186 49.0454 46.2046Z" fill="#253D4E"/>
<path d="M53.2385 47.928C52.8729 47.414 52.1595 47.2937 51.6451 47.6599L47.0923 50.9012C46.5782 51.2674 46.4583 51.9807 46.8242 52.4947C47.0471 52.8079 47.3987 52.9748 47.7559 52.9748C47.9851 52.9748 48.2165 52.9059 48.4176 52.7627L52.9704 49.5214C53.4845 49.1555 53.6044 48.4421 53.2385 47.928Z" fill="#253D4E"/>
<path d="M77.7843 42.7438C77.415 42.2319 76.7011 42.1164 76.1891 42.4852L75.8085 42.7596C75.8101 42.6616 75.8123 42.5638 75.8123 42.4656C75.8123 41.3756 75.3882 40.35 74.6158 39.5755C73.8436 38.8052 72.8179 38.3811 71.728 38.3811H71.3898C72.6437 35.9583 73.2804 33.0409 73.2804 29.673C73.2804 23.0681 70.8045 15.8485 66.9729 11.2805C66.5672 10.7969 65.8466 10.7336 65.3632 11.1394C64.8798 11.545 64.8166 12.2657 65.2221 12.7491C68.7292 16.93 70.9954 23.5732 70.9954 29.673C70.9954 33.1884 70.2397 36.1143 68.7494 38.3811H66.4872L67.4923 37.6655C68.0065 37.2996 68.1264 36.5861 67.7605 36.0721C67.3947 35.5581 66.6816 35.4378 66.1671 35.804L62.5474 38.3811H55.751C56.4359 34.9117 55.7225 31.0358 53.6526 27.0709C52.1709 24.2336 50.0666 21.4882 47.646 19.1622C50.1392 12.8559 54.2653 8.82164 58.2857 8.82164C59.4999 8.82164 60.7235 9.17492 61.9223 9.87205C62.4679 10.1889 63.1673 10.0038 63.4845 9.45844C63.8015 8.91289 63.6164 8.21348 63.0709 7.8963C61.5186 6.99396 59.9086 6.53647 58.2857 6.53647C53.4218 6.53647 48.7448 10.7159 45.8367 17.5516C44.8462 16.7366 43.8197 15.9955 42.774 15.3498C37.8519 12.3099 33.191 11.6539 29.6504 13.5023C26.3846 15.209 24.2928 18.9934 23.7599 24.1583C23.695 24.786 24.1514 25.3474 24.779 25.412C25.4082 25.4778 25.9682 25.0203 26.0327 24.3928C26.4844 20.0158 28.1449 16.8674 30.7081 15.5277C36.9488 12.2697 47.2552 19.7574 51.6269 28.1286C53.5713 31.8531 54.1695 35.2973 53.4125 38.3812H40.602C40.5988 38.3812 40.5958 38.3812 40.5926 38.3812H34.7377L32.8201 36.4637C32.3737 36.0176 31.6504 36.0176 31.2042 36.4637C30.758 36.91 30.758 37.6334 31.2042 38.0796L31.5057 38.3811H28.3689C27.0962 35.4885 26.2595 32.1669 26.0001 28.9447C25.9495 28.3158 25.3992 27.8455 24.7696 27.8975C24.1406 27.9481 23.6718 28.4989 23.7224 29.128C23.9331 31.7465 24.4736 34.352 25.3078 36.811C22.0513 34.036 17.7977 32.5447 13.4182 32.7826C13.01 32.8048 12.6446 33.0435 12.4605 33.4084C10.7422 36.8107 10.2591 40.651 10.9717 44.2878C10.9784 44.3981 11.0002 44.504 11.0359 44.6034C11.2598 45.6411 11.5828 46.6601 12.002 47.6462C7.11148 48.4047 2.76859 51.2873 0.16548 55.5812C-0.0464317 55.9307 -0.0552677 56.3669 0.142019 56.725C1.9831 60.0663 4.88512 62.6334 8.29444 64.0961C8.38539 64.1494 8.4803 64.1898 8.57795 64.2157C10.4608 64.9833 12.4911 65.4171 14.579 65.4602C14.6934 65.4626 14.8066 65.4637 14.9207 65.4637C15.7334 65.4637 16.5386 65.4023 17.3318 65.287C17.4065 65.2825 17.4807 65.2729 17.5527 65.2542C20.911 64.7199 24.0332 63.1778 26.4981 60.8607C26.554 60.8691 26.6107 60.8749 26.6689 60.8749H31.7959C32.427 60.8749 32.9385 60.3635 32.9385 59.7323C32.9385 59.1012 32.427 58.5897 31.7959 58.5897H28.5153C28.8151 58.1833 29.0992 57.7627 29.3637 57.3263C29.3718 57.3129 29.3783 57.2989 29.3858 57.2854C29.3926 57.273 29.4009 57.2618 29.4073 57.249C32.0686 51.9766 31.7674 45.6531 28.6404 40.6662H33.7908L36.9016 43.777C37.1247 44 37.4172 44.1115 37.7096 44.1115C38.0019 44.1115 38.2944 44 38.5176 43.777C38.9638 43.3306 38.9638 42.6073 38.5176 42.161L37.0228 40.6662H40.1241L44.366 44.9081C44.5892 45.1312 44.8817 45.2427 45.174 45.2427C45.4664 45.2427 45.7589 45.1312 45.9821 44.9081C46.4283 44.4618 46.4283 43.7384 45.9821 43.2922L43.3562 40.6664H54.2708C54.272 40.6664 54.2733 40.6667 54.2746 40.6667C54.2758 40.6667 54.2771 40.6664 54.2784 40.6664H59.338L56.8435 42.4423C56.3293 42.8082 56.2094 43.5216 56.5753 44.0356C56.7982 44.3489 57.1498 44.5157 57.5071 44.5157C57.7362 44.5157 57.9676 44.4468 58.1687 44.3036L63.2777 40.6662H69.3447C69.3453 40.6662 69.3461 40.6664 69.3467 40.6664C69.3476 40.6664 69.3484 40.6662 69.3493 40.6662H71.7288C72.2094 40.6662 72.662 40.8535 73.0008 41.1912C73.3407 41.532 73.5279 41.9846 73.5279 42.4654C73.5279 43.1533 73.4844 43.831 73.4004 44.4965L65.0108 50.5458C64.4991 50.9149 64.3833 51.629 64.7523 52.141C64.9758 52.4507 65.3254 52.6154 65.6801 52.6154C65.9116 52.6154 66.1453 52.5452 66.3475 52.3995L72.5836 47.9031C71.3377 51.3701 68.9361 54.2903 65.8454 56.1973L53.1033 43.4552C52.6569 43.0091 51.9336 43.0091 51.4873 43.4552C51.0411 43.9016 51.0411 44.6249 51.4873 45.0711L63.7174 57.3012C62.0613 58.0087 60.2635 58.4461 58.3796 58.5591L53.3983 53.5781C52.9523 53.132 52.2288 53.1318 51.7826 53.5782C51.3364 54.0244 51.3364 54.7478 51.7827 55.194L55.1783 58.5894H43.9926L42.1594 56.7563C41.7131 56.3102 40.9897 56.3102 40.5435 56.7563C40.0973 57.2026 40.0973 57.926 40.5435 58.3722L40.7607 58.5894H36.5562C35.925 58.5894 35.4136 59.1009 35.4136 59.732C35.4136 60.3632 35.925 60.8746 36.5562 60.8746H43.0449L45.6219 63.4517C45.8451 63.6747 46.1376 63.7862 46.43 63.7862C46.7223 63.7862 47.0148 63.6747 47.238 63.4517C47.6842 63.0053 47.6842 62.282 47.238 61.8357L46.2768 60.8746H57.4015C60.282 60.8746 63.0098 60.209 65.4401 59.0247L66.3999 59.9845C66.6231 60.2075 66.9156 60.319 67.2079 60.319C67.5003 60.319 67.7928 60.2075 68.016 59.9845C68.4622 59.5381 68.4622 58.8148 68.016 58.3685L67.4986 57.8512C71.6181 55.1391 74.589 50.8196 75.5106 45.7919L77.5259 44.3388C78.0375 43.9698 78.1533 43.2558 77.7843 42.7438ZM26.5599 41.6511C26.6881 41.8472 26.8093 42.0466 26.9272 42.2476L24.035 47.9865L20.7326 42.9333L23.0438 37.9277C24.4088 38.939 25.6061 40.1917 26.5599 41.6511ZM22.7838 50.249L16.4848 50.5662C16.0602 50.0764 15.6652 49.5563 15.3056 49.006C14.5543 47.8563 13.981 46.6199 13.5861 45.3374L19.5108 45.2407L22.7838 50.249ZM21.0908 36.706L19.2576 40.6761L15.6141 35.1009C17.5408 35.272 19.401 35.825 21.0908 36.706ZM13.7005 36.3497L18.0331 42.9793L13.0788 43.0602C12.7653 40.8233 12.9691 38.5215 13.7005 36.3497ZM13.1099 49.8075C13.2018 49.9579 13.2958 50.1076 13.3926 50.256C13.9003 51.0328 14.468 51.7581 15.086 52.4301C15.1311 52.4888 15.1818 52.5427 15.2371 52.5916C16.2634 53.6786 17.4243 54.6186 18.6845 55.3922L12.673 55.2686L9.83875 50.5283C10.8883 50.1658 11.9847 49.9219 13.1099 49.8075ZM7.7268 51.4489L9.97723 55.213L3.31551 55.0761C4.5431 53.5767 6.04507 52.348 7.7268 51.4489ZM8.46003 61.6595C6.43614 60.6563 4.65051 59.1895 3.27026 57.3606L11.1881 57.5235L8.46003 61.6595ZM16.5788 63.0819C15.9348 63.1564 15.2825 63.1886 14.6254 63.1756C13.2523 63.1471 11.9079 62.9229 10.6265 62.5254L13.889 57.5789L19.8705 57.7019L16.5788 63.0819ZM19.6944 62.3682L22.5161 57.7564L25.9845 57.8277C26.0558 57.8343 26.1274 57.839 26.1989 57.8446C24.4795 59.9319 22.2181 61.491 19.6944 62.3682ZM26.118 55.545C23.4669 55.2852 20.9465 54.3022 18.8298 52.7362L24.2312 52.4641L26.2463 55.5476L26.118 55.545ZM28.1657 54.3075L25.4797 50.1974L28.1457 44.9072C29.1775 47.9357 29.1946 51.2504 28.1657 54.3075Z" fill="#253D4E"/>
<path d="M66.5711 44.7026C66.2019 44.1907 65.4878 44.0753 64.9761 44.4442L60.9498 47.3475C60.438 47.7165 60.3223 48.4305 60.6914 48.9425C60.9147 49.2522 61.2644 49.4169 61.619 49.4169C61.8507 49.4169 62.0843 49.3467 62.2864 49.2009L66.3128 46.2977C66.8245 45.9287 66.9403 45.2146 66.5711 44.7026Z" fill="#253D4E"/>
<path d="M97.056 69.336C95.728 69.336 94.496 69.128 93.36 68.712C92.24 68.28 91.264 67.672 90.432 66.888C89.616 66.104 88.976 65.184 88.512 64.128C88.048 63.056 87.816 61.88 87.816 60.6C87.816 59.32 88.048 58.152 88.512 57.096C88.976 56.024 89.616 55.096 90.432 54.312C91.264 53.528 92.24 52.928 93.36 52.512C94.496 52.08 95.728 51.864 97.056 51.864C98.608 51.864 99.992 52.136 101.208 52.68C102.44 53.224 103.464 54.008 104.28 55.032L101.256 57.768C100.712 57.128 100.112 56.64 99.456 56.304C98.816 55.968 98.096 55.8 97.296 55.8C96.608 55.8 95.976 55.912 95.4 56.136C94.824 56.36 94.328 56.688 93.912 57.12C93.512 57.536 93.192 58.04 92.952 58.632C92.728 59.224 92.616 59.88 92.616 60.6C92.616 61.32 92.728 61.976 92.952 62.568C93.192 63.16 93.512 63.672 93.912 64.104C94.328 64.52 94.824 64.84 95.4 65.064C95.976 65.288 96.608 65.4 97.296 65.4C98.096 65.4 98.816 65.232 99.456 64.896C100.112 64.56 100.712 64.072 101.256 63.432L104.28 66.168C103.464 67.176 102.44 67.96 101.208 68.52C99.992 69.064 98.608 69.336 97.056 69.336ZM120.182 69L127.598 52.2H132.278L139.718 69H134.774L128.966 54.528H130.838L125.03 69H120.182ZM124.238 65.736L125.462 62.232H133.67L134.894 65.736H124.238ZM157.145 69V52.2H164.825C166.361 52.2 167.681 52.448 168.785 52.944C169.905 53.44 170.769 54.16 171.377 55.104C171.985 56.032 172.289 57.136 172.289 58.416C172.289 59.68 171.985 60.776 171.377 61.704C170.769 62.616 169.905 63.32 168.785 63.816C167.681 64.296 166.361 64.536 164.825 64.536H159.785L161.897 62.544V69H157.145ZM167.537 69L163.361 62.88H168.425L172.625 69H167.537ZM161.897 63.048L159.785 60.864H164.537C165.529 60.864 166.265 60.648 166.745 60.216C167.241 59.784 167.489 59.184 167.489 58.416C167.489 57.632 167.241 57.024 166.745 56.592C166.265 56.16 165.529 55.944 164.537 55.944H159.785L161.897 53.76V63.048ZM194.332 69V55.968H189.172V52.2H204.22V55.968H199.084V69H194.332Z" fill="#490B3D"/>
<path d="M104.992 7.15C106.916 7.15 108.711 7.705 110.376 8.815C112.078 9.925 113.447 11.4235 114.483 13.3105C115.519 15.1975 116.037 17.3065 116.037 19.6375C116.037 21.9315 115.519 24.022 114.483 25.909C113.447 27.796 112.078 29.313 110.376 30.46C108.711 31.57 106.916 32.125 104.992 32.125H94.78L95.335 31.126V42.6145C95.335 43.5765 95.039 44.3905 94.447 45.0565C93.855 45.6855 93.078 46 92.116 46C91.191 46 90.4325 45.6855 89.8405 45.0565C89.2485 44.3905 88.9525 43.5765 88.9525 42.6145V10.5355C88.9525 9.5735 89.267 8.778 89.896 8.149C90.562 7.483 91.376 7.15 92.338 7.15H104.992ZM104.992 25.798C105.695 25.798 106.38 25.502 107.046 24.91C107.712 24.318 108.267 23.5595 108.711 22.6345C109.155 21.6725 109.377 20.6735 109.377 19.6375C109.377 18.5645 109.155 17.5655 108.711 16.6405C108.267 15.7155 107.712 14.9755 107.046 14.4205C106.38 13.8285 105.695 13.5325 104.992 13.5325H94.669L95.335 12.5335V26.686L94.7245 25.798H104.992ZM158.113 26.575C158.113 29.35 157.651 31.94 156.726 34.345C155.801 36.75 154.487 38.8775 152.785 40.7275C151.12 42.5405 149.122 43.965 146.791 45.001C144.497 46.037 141.981 46.555 139.243 46.555C136.505 46.555 133.989 46.037 131.695 45.001C129.401 43.965 127.403 42.5405 125.701 40.7275C124.036 38.8775 122.741 36.75 121.816 34.345C120.891 31.94 120.429 29.35 120.429 26.575C120.429 23.8 120.891 21.21 121.816 18.805C122.741 16.4 124.036 14.291 125.701 12.478C127.403 10.628 129.401 9.185 131.695 8.149C133.989 7.113 136.505 6.595 139.243 6.595C141.981 6.595 144.497 7.113 146.791 8.149C149.122 9.185 151.12 10.628 152.785 12.478C154.487 14.291 155.801 16.4 156.726 18.805C157.651 21.21 158.113 23.8 158.113 26.575ZM150.898 26.575C150.898 24.096 150.399 21.8575 149.4 19.8595C148.401 17.8245 147.032 16.215 145.293 15.031C143.554 13.847 141.537 13.255 139.243 13.255C136.949 13.255 134.933 13.847 133.194 15.031C131.455 16.215 130.086 17.806 129.087 19.804C128.125 21.802 127.644 24.059 127.644 26.575C127.644 29.054 128.125 31.311 129.087 33.346C130.086 35.344 131.455 36.935 133.194 38.119C134.933 39.303 136.949 39.895 139.243 39.895C141.537 39.895 143.554 39.303 145.293 38.119C147.032 36.935 148.401 35.344 149.4 33.346C150.399 31.311 150.898 29.054 150.898 26.575ZM167.958 7.0945C168.476 7.0945 169.013 7.2425 169.568 7.5385C170.16 7.7975 170.604 8.149 170.9 8.593L184.386 29.35L181.611 29.239L195.431 8.593C196.134 7.594 197.04 7.0945 198.15 7.0945C199.038 7.0945 199.834 7.409 200.537 8.038C201.24 8.667 201.591 9.481 201.591 10.48V42.6145C201.591 43.5765 201.277 44.3905 200.648 45.0565C200.019 45.6855 199.186 46 198.15 46C197.114 46 196.263 45.6855 195.597 45.0565C194.968 44.3905 194.654 43.5765 194.654 42.6145V16.474L196.818 16.9735L185.496 34.234C185.163 34.641 184.738 34.9925 184.22 35.2885C183.739 35.5845 183.239 35.714 182.721 35.677C182.24 35.714 181.741 35.5845 181.223 35.2885C180.742 34.9925 180.335 34.641 180.002 34.234L169.401 17.473L170.844 14.5315V42.6145C170.844 43.5765 170.548 44.3905 169.956 45.0565C169.364 45.6855 168.587 46 167.625 46C166.7 46 165.942 45.6855 165.35 45.0565C164.758 44.3905 164.462 43.5765 164.462 42.6145V10.48C164.462 9.555 164.795 8.7595 165.461 8.0935C166.164 7.4275 166.996 7.0945 167.958 7.0945Z" fill="#BD1E51"/>
</svg>
