<svg width="31" height="31" viewBox="0 0 31 31" fill="none" xmlns="http://www.w3.org/2000/svg">
<g clip-path="url(#clip0_96_5497)">
<path d="M4.42639 12.1096L4.05139 10.0471V8.17209C4.11389 7.73459 4.27639 6.85959 4.42639 6.85959C4.57639 6.85959 5.55139 6.48459 6.30139 6.29709L7.80139 6.10959C8.17639 6.10959 8.36389 6.10959 10.2389 5.73459C10.386 5.70517 11.3639 5.54709 11.7389 5.54709L11.1764 4.79709L11.9264 5.54709L12.6764 6.29709L12.8639 6.85959C12.6139 6.92209 12.0389 7.04709 11.7389 7.04709H10.2389L9.48889 7.42209V7.98459C9.48889 8.13459 9.36389 9.42209 9.30139 10.0471L9.11389 11.9221L8.36389 12.1096H4.80139H4.42639Z" fill="#FDC040"/>
<path d="M18.3014 7.04709L19.0514 6.10959L21.4889 4.42209L24.3014 3.29709C25.1764 3.04709 27.1514 2.65959 28.0514 3.10959C29.1764 3.67209 29.3639 3.85959 30.3014 5.54709C30.2389 6.85959 30.0014 9.59709 29.5514 10.0471L28.6139 11.7346L28.0514 12.1096H25.2389H21.1139H19.8014V10.7971C19.8014 10.6096 19.6139 9.29709 19.6139 9.10959V7.98459L19.4264 7.23459L19.0514 7.04709H18.3014Z" fill="#FDC040"/>
<path d="M22.2151 5.71682C21.9542 5.97769 21.8105 6.32452 21.8105 6.69344C21.8105 7.06236 21.9542 7.40919 22.215 7.67006L25.4078 10.8628C25.6686 11.1236 26.0154 11.2673 26.3843 11.2673C26.7532 11.2673 27.1001 11.1236 27.3609 10.8628C27.6217 10.6019 27.7654 10.2551 27.7654 9.88616C27.7654 9.51724 27.6217 9.17041 27.3609 8.90954L24.1682 5.71677C23.6298 5.17833 22.7535 5.17844 22.2151 5.71682ZM26.7395 9.53107C26.8343 9.62587 26.8865 9.75203 26.8865 9.88616C26.8865 10.0203 26.8343 10.1464 26.7394 10.2412C26.6446 10.3361 26.5184 10.3883 26.3843 10.3883C26.2502 10.3883 26.1241 10.3361 26.0292 10.2412L22.8365 7.04847C22.7417 6.95367 22.6894 6.82751 22.6894 6.69338C22.6894 6.55926 22.7417 6.43316 22.8366 6.33829C22.9344 6.24038 23.063 6.19145 23.1917 6.19145C23.3202 6.19145 23.4489 6.24038 23.5467 6.33829L26.7395 9.53107Z" fill="#BD1E51"/>
<path d="M30.5696 13.8074C30.3858 12.8995 29.7304 12.1714 28.892 11.8623C30.9711 8.39369 31.2593 5.14549 29.596 3.48213C28.8664 2.75255 27.8097 2.379 26.5379 2.40244C26.2952 2.40689 26.1021 2.60723 26.1065 2.84988C26.1109 3.08983 26.3068 3.28132 26.5458 3.28132C26.5485 3.28132 26.5513 3.28132 26.554 3.28126C27.5945 3.26198 28.4099 3.53891 28.9746 4.10359C29.8478 4.97685 29.8714 6.30364 29.7374 7.26291C29.5479 8.61952 28.9342 10.1494 27.9607 11.7004C25.426 11.6521 22.8804 11.6187 20.3307 11.6004C20.3141 10.1036 20.2215 8.58864 20.0532 7.08994C20.0301 6.88532 19.8682 6.72406 19.6634 6.70203C19.5324 6.68797 19.4011 6.67543 19.27 6.66242C21.1252 5.09363 23.1086 3.98857 24.9343 3.51752C25.1694 3.45687 25.3107 3.21721 25.25 2.98219C25.1894 2.74716 24.9496 2.60577 24.7147 2.66647C24.0151 2.847 23.2955 3.11326 22.5702 3.45646C22.7114 2.8422 22.7788 2.10582 22.5091 1.55637C22.3467 1.22525 22.0777 0.999475 21.7314 0.903436C21.2183 0.761283 20.4212 0.835934 19.5356 1.99936C19.4928 2.05567 19.4514 2.11239 19.4115 2.16882C19.4067 2.15212 19.4019 2.13547 19.3968 2.11877C19.2228 1.53973 18.7679 0.568268 17.675 0.568268C17.2955 0.568268 16.9646 0.719563 16.7179 1.00574C16.396 1.37941 16.2551 1.9598 16.2045 2.53826C15.82 2.03246 15.3541 1.62592 14.8501 1.62592C14.5228 1.62592 14.2242 1.79269 14.0096 2.09551C13.4441 2.89324 13.4359 4.62205 13.9612 6.43337C13.8296 6.43501 13.6981 6.438 13.5667 6.44075C12.7056 5.43607 11.6649 4.74463 11.2096 4.46794V3.50463C11.4159 3.46847 11.5728 3.28888 11.5728 3.07219V1.83142C11.5728 1.16272 11.0288 0.618719 10.3601 0.618719H7.62731C6.95862 0.618719 6.41461 1.16272 6.41461 1.83142V3.07219C6.41461 3.28888 6.57159 3.46847 6.7779 3.50463L6.77755 4.46777C6.18421 4.82813 4.59919 5.8903 3.71211 7.4326C3.53116 7.74586 3.44737 8.10693 3.47005 8.47755C3.51259 9.15298 3.61824 10.4661 3.84787 11.6924C3.66793 11.6956 3.4878 11.6986 3.30797 11.7021C2.0873 11.7251 1.02543 12.6105 0.78319 13.8072C0.640802 14.5083 0.640802 15.2193 0.783131 15.92C0.960911 16.7996 1.58396 17.5255 2.40688 17.8459C2.45517 18.7405 2.53785 20.0127 2.6732 21.4587C2.31043 22.4861 1.95511 23.514 1.61045 24.5397C1.31389 25.4233 1.71094 26.4039 2.53456 26.8209C2.84793 26.9791 3.17742 27.1018 3.51464 27.1872C3.82983 28.0809 4.39235 28.852 5.15456 29.4283C5.99624 30.0646 6.99916 30.401 8.05494 30.401H23.2979C24.3537 30.401 25.3566 30.0646 26.1983 29.4283C26.9606 28.8519 27.5231 28.0808 27.8383 27.1869C28.1771 27.1009 28.5065 26.978 28.8185 26.8203C29.6423 26.404 30.0394 25.4233 29.7424 24.5391C29.3974 23.5127 29.0422 22.485 28.6797 21.4582C28.815 20.0124 28.8977 18.7402 28.946 17.8457C29.7698 17.5245 30.3921 16.799 30.5696 15.9205C30.7119 15.2192 30.7119 14.5082 30.5696 13.8074ZM19.2176 7.53966C19.3583 8.88912 19.4364 10.2497 19.4518 11.5953C16.1921 11.5763 12.9271 11.5817 9.67067 11.6118C9.68561 10.261 9.76384 8.89487 9.90499 7.5396C12.9965 7.23115 16.1259 7.23115 19.2176 7.53966ZM14.7266 2.60377C14.7586 2.55865 14.806 2.50486 14.8501 2.50486C15.1666 2.50486 15.8302 3.40759 16.3022 4.47978C16.3799 4.66975 16.5801 4.78143 16.784 4.7461C16.9946 4.70953 17.1483 4.52683 17.1483 4.31307C17.1483 4.28635 17.1458 4.25958 17.1409 4.23321C16.9212 2.74821 17.1654 1.83289 17.3838 1.57946C17.4638 1.4867 17.5509 1.44715 17.6751 1.44715C18.6882 1.44715 18.7222 3.46296 18.7222 3.48277C18.7222 3.69049 18.8677 3.86968 19.0709 3.91257C19.2745 3.95552 19.4798 3.85011 19.5638 3.66008C19.878 2.94937 20.7629 1.54729 21.4964 1.7505C21.6009 1.77945 21.6677 1.83722 21.7199 1.94363C21.9068 2.32462 21.8068 3.16729 21.4794 4.0283C20.3171 4.69647 19.1579 5.55115 18.0587 6.55824C17.001 6.48071 15.9403 6.43841 14.8792 6.43138C14.2669 4.51166 14.4103 3.05004 14.7266 2.60377ZM10.3307 4.28061H7.65661L7.6569 3.51166H10.3308V4.28061H10.3307ZM7.62731 1.4976H10.3601C10.5442 1.4976 10.6939 1.64731 10.6939 1.83136V2.63254H7.29355V1.83142C7.29355 1.64737 7.44326 1.4976 7.62731 1.4976ZM4.71439 11.5445C4.49155 10.3611 4.38871 9.08038 4.34729 8.42311C4.33528 8.22611 4.37881 8.03561 4.47362 7.87149C5.31184 6.41409 6.9319 5.39681 7.33445 5.15949H10.6527C10.9096 5.31067 11.6633 5.77996 12.393 6.47937C11.4127 6.52378 10.4341 6.59738 9.45937 6.70209C9.25458 6.72406 9.09256 6.88532 9.06959 7.08999C8.90054 8.59567 8.8079 10.1175 8.79191 11.6207C7.44256 11.635 6.09479 11.6532 4.7499 11.676C4.73549 11.6331 4.72295 11.5894 4.71439 11.5445ZM3.29707 18.025C3.30076 18.0251 3.3044 18.0255 3.30809 18.0255L3.32215 18.0258C3.51921 18.0294 3.71627 18.0327 3.91338 18.0362C3.73725 18.5096 3.56234 18.9836 3.38948 19.4583C3.35075 18.9229 3.32051 18.4399 3.29707 18.025ZM23.2979 29.522H8.05489C6.50297 29.522 5.09767 28.5905 4.46717 27.2008C5.04452 27.0568 5.54516 26.6413 5.77498 26.0552C6.02823 25.4097 6.25834 24.8149 6.47848 24.2371C6.56491 24.0103 6.45112 23.7564 6.22429 23.6699C5.99747 23.5836 5.74357 23.6973 5.65714 23.9241C5.43799 24.4993 5.20888 25.0914 4.95669 25.7343C4.77457 26.1988 4.27814 26.4649 3.80082 26.3528C3.50093 26.2829 3.20812 26.1764 2.93108 26.0365C2.49448 25.8154 2.28495 25.2921 2.44362 24.8195C3.57036 21.4665 4.79941 18.0898 6.09655 14.7833C6.27896 14.3187 6.77574 14.0524 7.25177 14.1639C7.55459 14.235 7.84746 14.3417 8.12268 14.4811C8.5594 14.7017 8.76876 15.2247 8.60973 15.6979C7.87236 17.892 7.08741 20.1075 6.27656 22.2829C6.19177 22.5103 6.30744 22.7634 6.53485 22.8482C6.76232 22.933 7.01534 22.8173 7.10012 22.5899C7.65268 21.1074 8.19282 19.6063 8.71468 18.106C11.0255 18.1311 13.3507 18.1441 15.6763 18.1441C18.0022 18.1441 20.3277 18.1312 22.6387 18.106C23.5664 20.7734 24.551 23.4385 25.5777 26.0548C25.8076 26.6409 26.3083 27.0564 26.8857 27.2005C26.2553 28.5903 24.8498 29.522 23.2979 29.522ZM28.422 26.0358C28.1456 26.1754 27.8527 26.2821 27.5513 26.3527C27.0751 26.4643 26.5783 26.1982 26.3959 25.7337C25.1014 22.4347 23.8724 19.058 22.743 15.6974C22.584 15.2244 22.7935 14.7013 23.2302 14.4806C23.5064 14.3409 23.7994 14.2343 24.1008 14.1637C24.1739 14.1466 24.2474 14.1383 24.3202 14.1383C24.7221 14.1383 25.1018 14.3894 25.2561 14.7827C26.5506 18.0817 27.7796 21.4584 28.9091 24.8191C29.068 25.2921 28.8586 25.8151 28.422 26.0358ZM27.4397 18.0362C27.6365 18.0327 27.8333 18.0294 28.0301 18.0258L28.0458 18.0255C28.0491 18.0254 28.0524 18.025 28.0558 18.025C28.0323 18.4397 28.0021 18.9226 27.9634 19.4577C27.7905 18.9831 27.6157 18.5093 27.4397 18.0362ZM29.7081 15.7459C29.5752 16.4035 29.0684 16.9329 28.4144 17.0952C28.2911 17.1266 28.1608 17.1439 28.0282 17.1467L28.0137 17.147C27.7133 17.1526 27.413 17.1578 27.1126 17.1629C26.7716 16.2581 26.4256 15.3569 26.0743 14.4617C25.7337 13.5933 24.7987 13.0974 23.9003 13.308C23.531 13.3945 23.1721 13.5251 22.8337 13.6962C22.0099 14.1125 21.6127 15.0933 21.9098 15.9774C22.0501 16.3948 22.1919 16.8124 22.3351 17.2301C17.9128 17.276 13.4395 17.276 9.01715 17.2301C9.16047 16.8123 9.30274 16.3947 9.44273 15.978C9.7401 15.0936 9.34288 14.1128 8.51932 13.6968C8.18227 13.5261 7.82337 13.3953 7.45234 13.3082C6.55389 13.0978 5.61923 13.5938 5.27826 14.4622C4.92686 15.3578 4.58097 16.2589 4.24023 17.163C3.93964 17.1579 3.63898 17.1526 3.33838 17.147L3.32543 17.1468C3.19178 17.144 3.06158 17.1267 2.93571 17.0946C2.28424 16.9329 1.77739 16.4035 1.64443 15.7455C1.52566 15.1605 1.52566 14.5672 1.64449 13.9819C1.80575 13.1854 2.5123 12.5963 3.32461 12.5809C11.5206 12.4236 19.832 12.4236 28.0281 12.5809C28.8403 12.5963 29.5468 13.1854 29.7081 13.9822C29.827 14.5671 29.827 15.1604 29.7081 15.7459Z" fill="#BD1E51"/>
<path d="M9.86757 19.6485H9.83792C8.83147 19.6509 8.01927 20.4453 7.98892 21.457C7.95324 22.6485 7.95324 23.8569 7.98892 25.0484C8.01927 26.0601 8.83141 26.8545 9.83827 26.8569H9.86757C10.874 26.8545 11.6862 26.0601 11.7166 25.0484C11.7522 23.8569 11.7522 22.6485 11.7166 21.457C11.6861 20.4452 10.874 19.6509 9.86757 19.6485ZM10.838 25.0221C10.8222 25.5479 10.3859 25.9767 9.86581 25.9779H9.84003C9.31952 25.9767 8.88321 25.5478 8.86745 25.0221C8.83223 23.848 8.83223 22.6574 8.86745 21.4833C8.88321 20.9574 9.31952 20.5286 9.84032 20.5274H9.8651H9.8654C10.3859 20.5286 10.8222 20.9574 10.838 21.4833C10.8732 22.6574 10.8732 23.848 10.838 25.0221Z" fill="#BD1E51"/>
<path d="M15.6911 19.6485H15.6614C14.655 19.6509 13.8428 20.4453 13.8124 21.457C13.7767 22.6485 13.7767 23.8569 13.8124 25.0484C13.8428 26.0601 14.6549 26.8545 15.6618 26.8569H15.6911C16.6976 26.8545 17.5097 26.0601 17.54 25.0484C17.5757 23.8569 17.5757 22.6485 17.54 21.457C17.5097 20.4453 16.6976 19.6509 15.6911 19.6485ZM16.6615 25.0221C16.6457 25.5479 16.2094 25.9767 15.6894 25.9779H15.6636C15.1431 25.9767 14.7068 25.5478 14.691 25.0221C14.6558 23.848 14.6558 22.6574 14.691 21.4833C14.7068 20.9574 15.1431 20.5286 15.6639 20.5274H15.6886H15.6889C16.2094 20.5286 16.6457 20.9574 16.6615 21.4833C16.6967 22.6574 16.6967 23.848 16.6615 25.0221Z" fill="#BD1E51"/>
<path d="M21.5148 19.6485H21.4853C20.4788 19.6509 19.6666 20.4453 19.6363 21.457C19.6006 22.6485 19.6006 23.8569 19.6363 25.0484C19.6666 26.0601 20.4788 26.8545 21.4856 26.8569H21.5149C22.5214 26.8545 23.3335 26.0601 23.3639 25.0484C23.3996 23.8569 23.3996 22.6485 23.3639 21.457C23.3335 20.4453 22.5214 19.6509 21.5148 19.6485ZM22.4853 25.0221C22.4696 25.5479 22.0333 25.9767 21.5131 25.9779H21.4874C20.9669 25.9767 20.5307 25.5478 20.5149 25.0221C20.4796 23.848 20.4796 22.6574 20.5149 21.4833C20.5307 20.9574 20.9669 20.5286 21.4877 20.5274H21.5125H21.5129C22.0334 20.5286 22.4696 20.9574 22.4854 21.4833C22.5205 22.6574 22.5205 23.848 22.4853 25.0221Z" fill="#BD1E51"/>
</g>
<defs>
<clipPath id="clip0_96_5497">
<rect width="30" height="30" fill="white" transform="translate(0.676392 0.484589)"/>
</clipPath>
</defs>
</svg>
