<svg width="31" height="31" viewBox="0 0 31 31" fill="none" xmlns="http://www.w3.org/2000/svg">
<g clip-path="url(#clip0_96_5516)">
<ellipse cx="11.5522" cy="13.2048" rx="7.125" ry="6.75" fill="#FDC040"/>
<path d="M11.6366 20.514C15.9213 20.514 19.4071 17.2896 19.4071 13.3262C19.4071 9.36276 15.9213 6.13831 11.6366 6.13831C7.35202 6.13831 3.86621 9.36276 3.86621 13.3262C3.86621 17.2896 7.35202 20.514 11.6366 20.514ZM11.6366 7.01807C15.4362 7.01807 18.5274 9.84787 18.5274 13.3262C18.5274 16.8045 15.4362 19.6343 11.6366 19.6343C7.83712 19.6343 4.74598 16.8045 4.74598 13.3262C4.74598 9.84787 7.83712 7.01807 11.6366 7.01807Z" fill="#BD1E51"/>
<path d="M14.0161 12.2109C14.0161 12.9254 14.5975 13.5068 15.3121 13.5068C16.0266 13.5068 16.608 12.9254 16.608 12.2109C16.608 11.4963 16.0266 10.915 15.3121 10.915C14.5975 10.915 14.0161 11.4963 14.0161 12.2109ZM15.312 11.7947C15.5415 11.7947 15.7281 11.9814 15.7281 12.2109C15.7281 12.4403 15.5415 12.627 15.312 12.627C15.0825 12.627 14.8958 12.4403 14.8958 12.2109C14.8958 11.9814 15.0826 11.7947 15.312 11.7947Z" fill="#BD1E51"/>
<path d="M13.2139 11.3606C13.9284 11.3606 14.5098 10.7792 14.5098 10.0647C14.5098 9.35015 13.9284 8.7688 13.2139 8.7688C12.4993 8.7688 11.918 9.35015 11.918 10.0647C11.918 10.7792 12.4993 11.3606 13.2139 11.3606ZM13.2139 9.64851C13.4433 9.64851 13.63 9.83519 13.63 10.0646C13.63 10.2941 13.4433 10.4808 13.2139 10.4808C12.9844 10.4808 12.7977 10.2941 12.7977 10.0646C12.7977 9.83519 12.9844 9.64851 13.2139 9.64851Z" fill="#BD1E51"/>
<path d="M7.96118 13.5068C8.67578 13.5068 9.25713 12.9254 9.25713 12.2109C9.25713 11.4963 8.67578 10.915 7.96118 10.915C7.24663 10.915 6.66528 11.4963 6.66528 12.2109C6.66528 12.9254 7.24663 13.5068 7.96118 13.5068ZM7.96118 11.7947C8.19068 11.7947 8.37737 11.9814 8.37737 12.2109C8.37737 12.4403 8.19068 12.627 7.96118 12.627C7.73174 12.627 7.54505 12.4403 7.54505 12.2109C7.54505 11.9814 7.73174 11.7947 7.96118 11.7947Z" fill="#BD1E51"/>
<path d="M10.0593 11.3606C10.7739 11.3606 11.3552 10.7792 11.3552 10.0647C11.3552 9.35015 10.7739 8.7688 10.0593 8.7688C9.34478 8.7688 8.76343 9.35015 8.76343 10.0647C8.76343 10.7792 9.34478 11.3606 10.0593 11.3606ZM10.0593 9.64851C10.2888 9.64851 10.4755 9.83519 10.4755 10.0646C10.4755 10.2941 10.2888 10.4808 10.0593 10.4808C9.82988 10.4808 9.64319 10.2941 9.64319 10.0646C9.64319 9.83519 9.82988 9.64851 10.0593 9.64851Z" fill="#BD1E51"/>
<path d="M9.41505 13.1181C9.35393 13.4057 9.19059 13.6687 8.94267 13.8787C8.38584 14.3504 8.09481 15.0394 8.1442 15.7691C8.22115 16.9057 9.1371 17.813 10.2748 17.8796C10.6499 17.9014 11.0265 17.8305 11.3641 17.6741C11.5347 17.5951 11.7384 17.5951 11.9089 17.6741C12.2065 17.8119 12.5345 17.8834 12.8649 17.8834C12.9094 17.8834 12.9539 17.8822 12.9984 17.8796C14.136 17.8129 15.0519 16.9056 15.1289 15.769C15.1783 15.0393 14.8872 14.3503 14.3305 13.8787C14.0826 13.6687 13.9192 13.4057 13.8582 13.1182C13.7521 12.619 13.4876 12.1802 13.0933 11.8492C12.2627 11.1521 11.0103 11.1521 10.1798 11.8492C9.78555 12.1803 9.52115 12.619 9.41505 13.1181ZM10.7455 12.523C11.2535 12.0966 12.0196 12.0966 12.5276 12.523C12.7702 12.7266 12.9326 12.9956 12.9975 13.301C13.0995 13.7809 13.3637 14.2128 13.7617 14.5499C14.103 14.839 14.2814 15.2617 14.2511 15.7096C14.204 16.4052 13.6433 16.9605 12.9469 17.0013C12.7131 17.0149 12.4881 16.9728 12.2787 16.8758C12.0746 16.7812 11.8556 16.734 11.6365 16.734C11.4175 16.734 11.1983 16.7813 10.9943 16.8758C10.785 16.9728 10.56 17.0151 10.3261 17.0013C9.62971 16.9605 9.06906 16.4052 9.02197 15.7097C8.99165 15.2617 9.17 14.839 9.51129 14.5499C9.9093 14.2128 10.1736 13.7809 10.2756 13.301C10.3405 12.9957 10.503 12.7267 10.7455 12.523Z" fill="#BD1E51"/>
<path d="M28.9443 23.6302C29.8786 22.4382 30.3927 20.9553 30.3927 19.4358C30.3927 15.6814 27.3383 12.627 23.5839 12.627C22.882 12.627 22.1963 12.7324 21.5375 12.9403C21.4901 10.7655 21.3773 8.59356 21.1985 6.43326C21.1346 5.66587 21.302 4.91725 21.6828 4.26822C22.2003 3.38558 22.6637 2.17989 21.9322 1.44834C21.6186 1.13502 20.8148 0.680829 17.4687 0.355315C15.38 0.152148 13.0864 0.0797729 11.6365 0.0797729C10.1865 0.0797729 7.89295 0.152148 5.80421 0.355374C2.45806 0.680887 1.6543 1.13508 1.34064 1.44851C0.609199 2.17989 1.0726 3.38558 1.59014 4.26839C1.97084 4.91731 2.13829 5.66593 2.0743 6.43314C2.04949 6.7298 2.02492 7.04564 1.99712 7.42722C1.9794 7.66951 2.16152 7.8803 2.4038 7.89795C2.64615 7.91573 2.85688 7.73356 2.87454 7.49127C2.90216 7.11291 2.92644 6.79995 2.95102 6.5064C3.03014 5.55731 2.82193 4.62945 2.34902 3.82329C2.32498 3.78224 2.30245 3.74206 2.28005 3.70194C3.61178 3.14118 7.96075 2.77549 11.6365 2.77549C13.0356 2.77549 15.2557 2.84446 17.2907 3.03795C19.5381 3.25168 20.5434 3.51731 20.9916 3.70417C20.9696 3.74353 20.9476 3.78294 20.9239 3.82323C20.451 4.62945 20.2427 5.55725 20.3217 6.50617C20.7778 12.0157 20.8018 17.6017 20.3957 23.1168C19.4519 23.1166 18.5079 23.1241 17.5689 23.1394C17.4484 21.643 16.1921 20.4622 14.6652 20.4622C13.0588 20.4622 11.752 21.7691 11.752 23.3754C11.752 24.0772 12.0032 24.7465 12.4534 25.271C12.3408 25.4022 12.2406 25.5425 12.1538 25.69C9.52257 25.7093 6.85706 25.5809 4.22721 25.3068C3.53964 25.2355 2.99976 24.6818 2.94345 23.9899C2.5424 19.0957 2.48087 14.1309 2.76058 9.23332C2.77442 8.9908 2.58902 8.78294 2.3465 8.76904C2.10404 8.75531 1.89612 8.94059 1.88222 9.18312C1.60017 14.1212 1.66222 19.127 2.06656 24.0614C2.15712 25.1751 3.02767 26.0669 4.13624 26.1818C6.62421 26.4411 9.14351 26.5721 11.6375 26.572C11.6963 26.572 11.755 26.5712 11.8138 26.571C11.7734 26.7651 11.7519 26.9643 11.7519 27.1665C11.7519 28.7729 13.0588 30.0797 14.6651 30.0797C16.192 30.0797 17.4483 28.899 17.5688 27.4025C19.419 27.4329 21.2882 27.4329 23.1379 27.4025C23.2584 28.899 24.5148 30.0797 26.0417 30.0797C26.5104 30.0797 26.9769 29.9655 27.3907 29.7494C27.6061 29.637 27.6895 29.3712 27.5771 29.1558C27.4645 28.9405 27.1988 28.857 26.9835 28.9696C26.6908 29.1224 26.3739 29.1999 26.0417 29.1999C24.9205 29.1999 24.0082 28.2877 24.0082 27.1665C24.0082 27.1156 24.0109 27.0601 24.0167 26.9919C24.0272 26.8677 23.9846 26.745 23.8994 26.6541C23.8142 26.5632 23.6946 26.5126 23.57 26.515C21.4359 26.5558 19.2714 26.5558 17.1369 26.515C17.013 26.5127 16.8927 26.5632 16.8074 26.6541C16.7223 26.745 16.6796 26.8677 16.6901 26.9919C16.6959 27.0597 16.6986 27.1152 16.6986 27.1665C16.6986 28.2877 15.7864 29.1999 14.6652 29.1999C13.5439 29.1999 12.6317 28.2877 12.6317 27.1665C12.6317 26.5643 12.8971 25.9962 13.3598 25.6078C13.4593 25.5242 13.5168 25.4009 13.5168 25.2709C13.5168 25.1409 13.4593 25.0176 13.3598 24.934C12.8971 24.5456 12.6317 23.9775 12.6317 23.3753C12.6317 22.2541 13.5439 21.3419 14.6652 21.3419C15.7864 21.3419 16.6986 22.2541 16.6986 23.3753C16.6986 23.4266 16.6959 23.4822 16.6901 23.55C16.6796 23.6741 16.7223 23.7968 16.8074 23.8877C16.8927 23.9787 17.0128 24.0295 17.1369 24.0268C19.2714 23.9861 21.4358 23.9861 23.57 24.0268C23.6947 24.0295 23.8142 23.9787 23.8994 23.8877C23.9846 23.7968 24.0272 23.6741 24.0167 23.55C24.0109 23.4817 24.0082 23.4262 24.0082 23.3753C24.0082 22.2541 24.9205 21.3419 26.0417 21.3419C27.1632 21.3419 28.0757 22.2541 28.0757 23.3753C28.0757 23.9777 27.8103 24.5457 27.3473 24.9338C27.2476 25.0174 27.19 25.1408 27.19 25.2709C27.19 25.401 27.2476 25.5244 27.3473 25.608C27.8103 25.9961 28.0757 26.5642 28.0757 27.1665C28.0757 27.4233 28.0286 27.6734 27.9355 27.9099C27.8466 28.136 27.9578 28.3913 28.1839 28.4803C28.41 28.5692 28.6653 28.458 28.7542 28.232C28.8877 27.8925 28.9555 27.5341 28.9555 27.1666C28.9555 26.4646 28.7041 25.7954 28.2537 25.271C28.6493 24.8104 28.8913 24.2381 28.9443 23.6302ZM11.6366 1.89567C11.557 1.89567 4.29676 1.90834 1.92457 2.90605C1.80339 2.51532 1.81207 2.2213 1.96269 2.07068C2.08169 1.95174 2.71659 1.53966 5.88943 1.23098C7.94685 1.03086 10.2072 0.959538 11.6365 0.959538C13.0657 0.959538 15.3261 1.03086 17.3835 1.23098C20.5564 1.53966 21.1912 1.95174 21.3101 2.07056C21.4609 2.2213 21.4696 2.51526 21.3484 2.90599C18.9762 1.90839 11.7162 1.89567 11.6366 1.89567ZM26.0418 20.4622C24.5149 20.4622 23.2585 21.6429 23.138 23.1394C22.5196 23.1292 21.8989 23.1238 21.2776 23.1204C21.502 20.048 21.5947 16.9542 21.5538 13.8635C22.2022 13.6267 22.8837 13.5068 23.5839 13.5068C26.8532 13.5068 29.5129 16.1665 29.5129 19.4358C29.5129 20.4514 29.2494 21.4484 28.7593 22.3263C28.3372 21.237 27.2786 20.4622 26.0418 20.4622Z" fill="#BD1E51"/>
</g>
<defs>
<clipPath id="clip0_96_5516">
<rect width="30" height="30" fill="white" transform="translate(0.677124 0.0797729)"/>
</clipPath>
</defs>
</svg>
