<svg width="26" height="30" viewBox="0 0 26 30" fill="none" xmlns="http://www.w3.org/2000/svg">
<g clip-path="url(#clip0_96_5548)">
<path d="M11.4147 15.2944C9.35603 15.2944 6.05357 17.3317 4.65967 18.3503L5.14217 18.9936L5.94634 19.4761L6.91135 20.602L7.87635 21.567L8.68053 23.1753L9.9672 24.1403C10.8786 24.2475 12.7336 24.462 12.8622 24.462C12.9909 24.462 14.9531 24.2475 15.9181 24.1403L17.6872 23.6578C17.8481 23.3361 18.2341 22.6606 18.4914 22.532C18.7488 22.4033 18.8131 21.835 18.8131 21.567L19.9389 20.602C20.1534 20.3339 20.4536 19.7978 19.9389 19.7978C19.4243 19.7978 17.4728 16.7955 16.5614 15.2944H15.1139H11.4147Z" fill="#FDC040"/>
<path d="M20.9039 9.82606C21.0112 9.39716 21.2256 8.47505 21.2256 8.21771L21.8689 9.02188L22.9948 9.34355H24.6031L25.4073 10.4694V11.7561V12.2386H24.6031H23.4773H21.8689H20.4214L19.2956 11.7561L19.9389 11.2736L20.9039 10.7911V9.82606Z" fill="#FDC040"/>
<path d="M21.2565 7.59491H19.8148C19.2385 7.5945 18.6722 7.74606 18.1732 8.03428C18.1024 8.05354 18.038 8.09122 17.9863 8.14319L17.962 8.16742C17.6154 8.40533 17.3177 8.70763 17.0852 9.05797C16.9642 9.23935 17.0005 9.48285 17.169 9.62095C17.3376 9.75927 17.5835 9.74726 17.7378 9.593L18.3695 8.96127L20.4051 9.97895V10.3382L19.0514 11.2418C18.6391 11.5153 18.091 11.4613 17.7403 11.112C17.6339 11.0018 17.4761 10.9575 17.3278 10.9964C17.1796 11.0351 17.0638 11.1509 17.0251 11.2991C16.9862 11.4474 17.0305 11.6052 17.1406 11.7116C17.7618 12.3361 18.607 12.6862 19.4878 12.6835H21.6806V13.5316H20.8325C19.6578 13.5353 18.5956 14.2315 18.1235 15.3071C17.7508 15.1599 17.3717 15.0328 16.9876 14.9203C17.4945 14.494 17.5893 13.7501 17.2059 13.2103C16.8224 12.6703 16.0888 12.5148 15.5192 12.8529C14.9498 13.191 14.7351 13.9097 15.0256 14.5048C13.8118 14.3342 12.5798 14.3381 11.3673 14.5168C11.4555 14.3429 11.5021 14.1507 11.5033 13.9557C11.5071 13.3614 11.0988 12.8438 10.5198 12.7088C9.9409 12.574 9.34603 12.8579 9.08659 13.3927C8.82715 13.9275 8.97271 14.5704 9.43693 14.9417C9.04973 15.0582 8.66937 15.1959 8.29191 15.3483C7.83017 14.2509 6.75721 13.5358 5.56664 13.5316H4.71853V12.6835H6.91126C7.79228 12.6862 8.63769 12.3359 9.25886 11.7112C9.41953 11.5447 9.41726 11.2803 9.25368 11.1167C9.09011 10.9532 8.8257 10.9509 8.65922 11.1115C8.30847 11.4609 7.76019 11.5153 7.34773 11.2418L5.99069 10.3363V9.9773L8.02605 8.95941L8.65798 9.59134C8.81224 9.74539 9.05801 9.75761 9.22676 9.6193C9.39531 9.48119 9.43154 9.23749 9.31062 9.0561C9.0781 8.70597 8.78035 8.40367 8.43374 8.16576L8.40951 8.14154C8.35775 8.08957 8.29315 8.05188 8.22254 8.03263C7.72416 7.74565 7.15931 7.5947 6.58432 7.59491H5.14258C2.56764 7.59802 0.481133 9.68452 0.478027 12.2595V13.9557C0.479891 15.5943 1.80774 16.9222 3.44638 16.924H5.42915L4.05823 17.8438C3.9427 17.9214 3.87271 18.0506 3.87064 18.1898C3.86857 18.3289 3.93483 18.46 4.04809 18.5409L4.15886 18.6202H2.77386L1.2019 17.0483L0.602261 17.6479L2.29846 19.3441C2.37797 19.4236 2.48585 19.4683 2.59828 19.4683H5.34571L5.84865 19.8276C6.0557 19.9775 6.25282 20.1406 6.43855 20.3164H5.14258C5.09703 20.3164 5.05189 20.3237 5.00862 20.338L2.71278 21.1014L1.2019 19.5926L0.602261 20.1922L2.29846 21.8884C2.37797 21.9679 2.48585 22.0126 2.59828 22.0126C2.64383 22.0126 2.68897 22.0052 2.73225 21.9911L5.21133 21.1645H7.19327C7.33758 21.3604 7.46989 21.565 7.58937 21.7768L7.72002 22.0126H6.41474C6.36918 22.0126 6.32405 22.0199 6.28077 22.0342L3.73647 22.8823C3.62197 22.921 3.52941 23.0065 3.482 23.1177L2.20984 26.086L2.9892 26.4202L4.1864 23.6271L6.48348 22.8607H8.19107L8.28569 23.0303C8.42587 23.2806 8.60166 23.5092 8.80768 23.7088H6.83879C5.6683 23.7103 4.71998 24.6586 4.71853 25.8291V27.1012C4.71998 28.5059 5.85817 29.6441 7.26284 29.6455C8.19956 29.6455 8.95904 28.8861 8.95904 27.9493C8.95904 27.0126 8.19956 26.2531 7.26284 26.2531H8.53499C9.54811 26.2517 10.4188 25.5336 10.6128 24.5391C10.701 24.5468 10.7892 24.5569 10.8787 24.5569H15.6768C15.7138 24.5569 15.7494 24.5497 15.7859 24.5485C15.9849 25.5386 16.8541 26.2515 17.8641 26.2531H19.1363C18.1995 26.2531 17.4401 27.0126 17.4401 27.9493C17.4401 28.8861 18.1995 29.6455 19.1363 29.6455C20.5409 29.6441 21.6791 28.5059 21.6806 27.1012V25.8291C21.6791 24.6586 20.7308 23.7103 19.5603 23.7088H17.7463C17.996 23.4641 18.2002 23.1769 18.3492 22.8607H19.9156L22.2139 23.6271L23.4111 26.4202L24.1905 26.086L22.9183 23.1177C22.8709 23.0065 22.7784 22.921 22.6639 22.8823L20.1196 22.0342C20.0761 22.0197 20.0303 22.0124 19.9844 22.0126H18.7329C18.8834 21.7157 19.0588 21.4318 19.2572 21.1645H21.1878L23.6668 21.9911C23.7101 22.0052 23.7553 22.0126 23.8008 22.0126C23.9132 22.0126 24.0211 21.9679 24.1006 21.8884L25.7968 20.1922L25.1972 19.5926L23.6863 21.1035L21.3905 20.3402C21.3474 20.3251 21.3021 20.3171 21.2565 20.3164H20.0318C20.1676 20.1934 20.3072 20.0744 20.4558 19.9636L21.1149 19.4683H23.8008C23.9132 19.4683 24.0211 19.4236 24.1006 19.3441L25.7968 17.6479L25.1972 17.0483L23.6252 18.6202H22.2458L22.3591 18.5353C22.467 18.4546 22.5301 18.3272 22.5289 18.1922C22.5276 18.0575 22.4624 17.9311 22.3531 17.8523L21.0687 16.924H22.9527C24.5914 16.9222 25.9192 15.5943 25.9211 13.9557V12.2595C25.918 9.68452 23.8315 7.59802 21.2565 7.59491ZM5.99069 8.44301H6.58432C6.74685 8.44301 6.90898 8.45916 7.06821 8.49126L5.99069 9.02898V8.44301ZM5.56664 25.8291C5.56726 25.2901 5.90683 24.8098 6.41474 24.6294V26.2531H5.56664V25.8291ZM8.11094 27.9493C8.11094 28.4177 7.7312 28.7974 7.26284 28.7974C6.32612 28.7974 5.56664 28.038 5.56664 27.1012H7.26284C7.7312 27.1012 8.11094 27.481 8.11094 27.9493ZM16.1679 13.5316C16.4021 13.5316 16.592 13.7215 16.592 13.9557C16.592 14.1899 16.4021 14.3797 16.1679 14.3797C15.9337 14.3797 15.7439 14.1899 15.7439 13.9557C15.7439 13.7215 15.9337 13.5316 16.1679 13.5316ZM10.2312 13.5316C10.4654 13.5316 10.6552 13.7215 10.6552 13.9557C10.6552 14.1899 10.4654 14.3797 10.2312 14.3797C9.99701 14.3797 9.80714 14.1899 9.80714 13.9557C9.80714 13.7215 9.99701 13.5316 10.2312 13.5316ZM3.87043 13.9557V16.0759H3.44638C2.27589 16.0745 1.32758 15.1262 1.32613 13.9557V12.6835H3.87043V13.9557ZM1.34953 11.8354C1.56776 9.90483 3.19978 8.44529 5.14258 8.44301V10.5633C5.14258 10.7051 5.2134 10.8374 5.33121 10.9161L6.71165 11.8354H1.34953ZM4.71853 16.0759V14.3797H5.56664C6.42157 14.382 7.19161 14.8974 7.51938 15.6871C7.26656 15.8084 7.01768 15.938 6.77274 16.0759H4.71853ZM8.53499 25.405H7.26284V24.5569H9.73467C9.55433 25.0648 9.07396 25.4044 8.53499 25.405ZM19.9844 25.8291V24.6294C20.4923 24.8098 20.8318 25.2901 20.8325 25.8291V26.2531H19.9844V25.8291ZM20.8325 27.1012C20.8325 28.038 20.073 28.7974 19.1363 28.7974C18.6679 28.7974 18.2882 28.4177 18.2882 27.9493C18.2882 27.481 18.6679 27.1012 19.1363 27.1012H20.8325ZM19.1363 24.5569V25.405H17.8641C17.3251 25.4044 16.8448 25.0648 16.6644 24.5569H19.1363ZM21.3892 18.2026L19.9475 19.2851C18.9106 20.0622 18.118 21.1198 17.6635 22.3332C17.3508 23.1595 16.5603 23.7068 15.6768 23.7088H10.8799C10.1101 23.7086 9.40069 23.2912 9.02695 22.6183L8.33063 21.3648C7.84011 20.4846 7.16076 19.724 6.34144 19.1377L5.03906 18.2072L6.34185 17.3332C10.6569 14.4377 16.3188 14.5367 20.5302 17.5812L21.3892 18.2026ZM21.6806 16.0759H19.7299C19.4568 15.9229 19.1797 15.7798 18.8983 15.6463C19.2358 14.8789 19.9941 14.3824 20.8325 14.3797H21.6806V16.0759ZM19.333 8.49126C19.4924 8.45916 19.6543 8.44301 19.8168 8.44301H20.4084V9.02898L19.333 8.49126ZM25.073 13.9557C25.0715 15.1262 24.1232 16.0745 22.9527 16.0759H22.5287V12.6835H25.073V13.9557ZM22.1046 11.8354H19.6874L21.0664 10.9161C21.1849 10.8376 21.2563 10.7053 21.2565 10.5633V8.44301C23.1993 8.44529 24.8313 9.90483 25.0496 11.8354H22.1046Z" fill="#BD1E51"/>
<path d="M10.9551 17.8964L10.3555 18.496L11.3278 19.4683L10.3555 20.4407L10.9551 21.0403L12.2273 19.7681C12.3927 19.6025 12.3927 19.3342 12.2273 19.1685L10.9551 17.8964Z" fill="#BD1E51"/>
<path d="M15.4441 17.8964L14.1719 19.1685C14.0065 19.3342 14.0065 19.6025 14.1719 19.7681L15.4441 21.0403L16.0437 20.4407L15.0714 19.4683L16.0437 18.496L15.4441 17.8964Z" fill="#BD1E51"/>
<path d="M10.5481 4.11202L9.0312 2.30973L9.94719 2.40815L10.6908 2.45241L11.198 2.04362L11.9317 1.51662L12.5572 1.33436L12.7936 1.78741L12.8035 2.35867L13.0399 2.81171L14.3647 3.41734L15.3447 3.91465L16.0342 4.13127L16.5513 4.29374L16.6695 4.52027L16.507 5.03737L16.3446 5.55447L16.2362 5.8992L15.7191 5.73673L15.0739 4.77648L10.5481 4.11202Z" fill="#FDC040"/>
<path d="M18.2668 3.15238C17.8124 3.0951 17.354 3.22194 16.9937 3.5047L16.3899 3.97586C16.1805 3.94942 15.9734 3.90708 15.7705 3.84929L16.1392 3.17946C16.1728 3.11849 16.174 3.04476 16.1421 2.98273C16.1103 2.9208 16.0498 2.87872 15.9807 2.8704C15.4245 2.80181 14.7362 3.13004 14.4756 3.26923C14.0024 3.00615 13.5022 2.79517 12.9836 2.63983L12.7834 1.36307C12.7665 1.25456 12.6687 1.17758 12.5592 1.18664C11.6222 1.25652 10.7862 1.92229 10.5048 2.16997C7.93459 1.95485 5.88669 2.596 5.75039 3.70104C5.60545 4.87619 7.68291 6.06687 10.4799 6.41186C10.7772 6.44852 11.0714 6.47131 11.3621 6.48604C11.8933 6.99715 12.5797 7.31671 13.3127 7.39424C13.3849 7.40356 13.4567 7.3747 13.5024 7.31812C13.5481 7.26153 13.5611 7.18514 13.5368 7.11662L13.2863 6.41049C13.4384 6.38866 13.5853 6.36289 13.7269 6.33317C14.1168 6.79542 14.6073 7.16232 15.1609 7.40574C15.2259 7.43076 15.2993 7.42178 15.3563 7.38173C15.4134 7.34169 15.4469 7.27597 15.4455 7.20625L15.4234 6.01688C15.6382 6.01165 15.8533 6.02138 16.0669 6.04598L16.1336 6.0542L16.6047 6.65794C16.8856 7.01978 17.2995 7.25422 17.7541 7.30906C17.8689 7.32322 17.9735 7.24164 17.9876 7.12686L18.449 3.38585C18.4632 3.27107 18.3816 3.16654 18.2668 3.15238ZM15.5933 3.30097L15.366 3.71389C15.2184 3.65642 15.0711 3.59066 14.9243 3.51661C15.138 3.41851 15.3625 3.34617 15.5933 3.30097ZM12.4003 1.6287L12.5389 2.5141C12.0643 2.39137 11.5825 2.29815 11.0964 2.2351C11.4818 1.94059 11.9267 1.73368 12.4003 1.6287ZM12.0486 6.50263C12.328 6.49968 12.5973 6.48376 12.8583 6.45959L13.0206 6.91747C12.6749 6.83712 12.3459 6.69672 12.0486 6.50263ZM14.1888 6.21655C14.2183 6.20771 14.2504 6.20064 14.2791 6.19152C14.5149 6.11861 14.7572 6.06865 15.0027 6.04237L15.0187 6.87586C14.7121 6.69659 14.4327 6.47462 14.1888 6.21655ZM16.0631 5.62351C15.4213 5.54374 14.7699 5.60124 14.152 5.79227C13.234 6.08528 11.9432 6.16066 10.6022 6.0033C10.7855 5.92772 10.9535 5.81977 11.0984 5.68464L11.4009 5.40103C11.4606 5.34535 11.4825 5.26006 11.4569 5.18252C11.4314 5.10499 11.3632 5.04939 11.2821 5.04001L9.61946 4.83494L9.56819 5.2506L10.7863 5.40084C10.3485 5.79326 9.69197 5.81407 9.2303 5.45001L9.03265 5.70266C8.83877 5.65073 8.64868 5.594 8.46447 5.53306L8.85269 5.11022C9.24743 4.68046 9.34961 4.0575 9.11291 3.5242L8.95175 3.16104L8.5692 3.33073L8.73013 3.69406C8.89919 4.07499 8.82627 4.52003 8.54434 4.82699L8.03622 5.38C6.90548 4.94258 6.09256 4.34821 6.16606 3.75231C6.17246 3.71044 6.18342 3.66924 6.1989 3.62974L6.8244 4.23088L7.11486 3.92909L6.44827 3.28775C7.08922 2.72197 8.76339 2.36697 10.9456 2.63614C12.2868 2.80156 13.5337 3.18489 14.3668 3.68749C14.9322 4.03642 15.5611 4.27007 16.2171 4.37488L16.0631 5.62351ZM17.9308 4.16592L17.3073 4.08901L17.2561 4.50468L17.8796 4.58158L17.8283 4.99725L17.2048 4.92035L17.1535 5.33602L17.777 5.41292L17.7257 5.82859L17.1022 5.75169L17.051 6.16735L17.6745 6.24426L17.5996 6.85132C17.3359 6.77511 17.1033 6.61722 16.9349 6.4003L16.4637 5.79656L16.6476 4.306L17.2513 3.83484C17.4673 3.66543 17.7314 3.5688 18.0057 3.55885L17.9308 4.16592Z" fill="#BD1E51"/>
<path d="M7.90336 3.35115C7.87505 3.5807 7.66597 3.74387 7.43642 3.71555C7.20687 3.68724 7.04371 3.47817 7.07202 3.24862C7.10034 3.01906 7.30941 2.8559 7.53896 2.88422C7.76851 2.91253 7.93167 3.1216 7.90336 3.35115Z" fill="#BD1E51"/>
<path d="M9.74829 3.78967L15.3598 4.4818L15.3085 4.89747L9.69702 4.20534L9.74829 3.78967Z" fill="#BD1E51"/>
</g>
<defs>
<clipPath id="clip0_96_5548">
<rect width="25.443" height="30" fill="white" transform="translate(0.478027)"/>
</clipPath>
</defs>
</svg>
