<svg width="29" height="31" viewBox="0 0 29 31" fill="none" xmlns="http://www.w3.org/2000/svg">
<g clip-path="url(#clip0_96_5574)">
<path d="M11.8577 13.1441C11.7005 13.3013 11.6612 14.1266 11.6612 14.5196C11.6612 14.5851 11.8184 14.6768 12.4472 14.5196C13.2332 14.3231 12.8402 14.3231 13.2332 13.9301C13.6262 13.5371 13.4297 13.9301 14.2157 14.1266C15.0017 14.3231 14.6087 14.5196 15.0017 14.7161C15.3947 14.9126 15.3947 14.7161 15.5912 14.7161C15.7877 14.7161 16.1807 14.3231 16.5737 14.1266C16.9667 13.9301 16.9667 13.9301 17.1632 13.7336C17.3204 13.5764 17.3597 13.4061 17.3597 13.3406C17.3597 13.2096 17.3204 12.869 17.1632 12.5546C16.9667 12.1616 16.7702 11.9651 16.5737 11.7686C16.3772 11.5721 15.9842 11.5721 15.5912 11.3756C15.1982 11.1791 14.8052 11.3756 14.4122 11.3756C14.0192 11.3756 13.2332 11.5721 13.0367 11.5721C12.8402 11.5721 12.4472 12.1616 12.2507 12.3581C12.0542 12.5546 12.0542 12.9476 11.8577 13.1441Z" fill="#FDC040"/>
<path d="M21.4863 9.21406C21.2898 9.41057 20.1107 13.7336 20.1107 13.9301C20.2417 14.0611 20.7003 14.4017 21.4863 14.7161C22.2723 14.9126 21.8793 14.5196 22.4688 14.3231C23.0583 14.1266 22.8618 14.1266 23.4513 14.1266C24.0408 14.1266 23.8443 14.1266 24.4338 14.5196C25.0233 14.9126 24.8268 14.5196 25.2198 14.5196C25.5342 14.5196 25.7438 14.1266 25.8093 13.9301L26.5953 12.3581L28.1673 8.82106L29.3463 4.30151L27.7743 4.10501C26.4643 4.03951 23.805 3.90851 23.6478 3.90851C23.4906 3.90851 23.1893 4.95652 23.0583 5.48053C22.5998 6.65954 21.6435 9.05686 21.4863 9.21406Z" fill="#FDC040"/>
<path d="M9.49963 27.4888C7.14161 28.1176 6.2901 25.9167 6.1591 24.7377H5.76609C5.63508 24.6722 5.33377 24.5412 5.17657 24.5412C4.98006 24.5412 3.80105 24.3447 3.60457 24.3447C3.40809 24.3447 2.42554 24.5412 2.42554 24.7377C2.42554 24.9342 1.63955 25.9167 1.44305 26.1132C1.24655 26.3097 1.44305 27.8818 1.44305 28.0783C1.44305 28.2748 1.83605 29.2573 1.83605 29.4538C1.83605 29.6503 2.03255 30.0433 2.22906 30.4363C2.42556 30.8293 2.62206 31.0258 3.01506 31.4188C3.40807 31.8118 3.01506 31.6153 3.60457 31.6153C4.19408 31.6153 4.19408 31.6153 4.58708 31.4188C4.98008 31.2223 5.56959 31.2223 5.76609 31.2223C5.9626 31.2223 6.1591 31.6153 6.5521 31.6153C6.94511 31.6153 6.94511 31.8118 7.33811 31.6153C7.73111 31.4188 7.92762 31.4188 8.32062 31.2223C8.71362 31.0258 9.10663 29.8468 9.10663 29.6503C9.10663 29.4931 9.36863 28.1438 9.49963 27.4888Z" fill="#FDC040"/>
<path d="M23.7004 5.41901L24.6514 5.10944L25.6279 8.10968L24.677 8.41901L23.7004 5.41901Z" fill="#BD1E51"/>
<path d="M22.2349 8.91949L23.1858 8.60992L24.1626 11.6097L23.2117 11.9195L22.2349 8.91949Z" fill="#BD1E51"/>
<path d="M5.37451 10.378C5.26904 11.1419 5.49194 11.9149 5.98852 12.505L6.71045 13.4105V21.7645H7.71045V14.199L8.43286 14.6805C8.60107 14.7926 8.81982 14.7926 8.98803 14.6805L10.2104 13.8646L11.4329 14.6795C11.6011 14.7916 11.8198 14.7916 11.988 14.6795L13.2104 13.8646L14.4329 14.6795C14.6011 14.7916 14.8198 14.7916 14.988 14.6795L16.2104 13.8646L17.4329 14.6795C17.6011 14.7916 17.8198 14.7916 17.988 14.6795L19.2104 13.8646L20.2104 14.5311V29.7645H9.21045V30.7645H23.2104C24.5906 30.7628 25.7087 29.6446 25.7104 28.2645V13.2645C25.7092 13.1546 25.6714 13.0482 25.603 12.962L28.4924 5.2696C28.8813 4.23616 28.739 3.07796 28.1116 2.16951C27.5154 1.28816 26.5198 0.761306 25.456 0.76448C24.1001 0.777175 22.8923 1.62434 22.4189 2.89509L21.635 4.98201L20.7104 4.05745V2.26448C20.7104 1.98836 20.4866 1.76448 20.2104 1.76448H14.7104C14.4343 1.76448 14.2104 1.98836 14.2104 2.26448V3.12239C13.6453 2.61018 12.7927 2.58113 12.1938 3.05403V2.26448C12.1938 1.44612 11.5305 0.782546 10.7119 0.782546C9.89355 0.782546 9.22998 1.44612 9.22998 2.26448V3.05452C8.9563 2.82771 8.61181 2.70369 8.25635 2.70442C7.84375 2.70344 7.44824 2.86995 7.1604 3.16609C6.56738 3.77717 6.56372 4.74788 7.15185 5.3636L7.61743 5.84407C7.448 5.9217 7.29419 6.02961 7.16357 6.16243L7.1604 6.16438L7.15552 6.16951C7.03906 6.28914 6.94263 6.42683 6.87036 6.57747L6.30054 5.52498L5.4209 6.00105L6.71387 8.38752C6.656 8.42048 6.5979 8.45246 6.54297 8.49006C6.52246 8.50398 6.50439 8.52009 6.48437 8.53401L4.54956 6.75105L3.87158 7.4864L5.79346 9.25837C5.57275 9.59602 5.42969 9.97834 5.37451 10.378ZM15.9329 12.8485L14.7104 13.6644L13.488 12.8494C13.3198 12.7374 13.1011 12.7374 12.9329 12.8494L11.7219 13.6571C11.719 13.607 11.7104 13.5635 11.7104 13.5155C11.7073 12.4166 12.5005 11.4769 13.5842 11.2957C14.6682 11.1143 15.7239 11.7447 16.0784 12.785C16.0268 12.7984 15.9778 12.8197 15.9329 12.8485ZM17.2104 13.3304L17.2009 13.324C17.1409 12.273 16.5747 11.3165 15.6821 10.7581C14.7898 10.1998 13.6819 10.109 12.7104 10.5145V7.26448H17.2104V13.3304ZM24.7104 28.2645C24.7104 29.0928 24.0388 29.7645 23.2104 29.7645H21.2104V14.5321L22.2104 13.8646L23.4328 14.6795C23.6011 14.7916 23.8198 14.7916 23.988 14.6795L24.7104 14.199V28.2645ZM23.355 3.24641C23.6809 2.36506 24.5163 1.77595 25.456 1.76448C26.1909 1.76301 26.8782 2.12752 27.2895 2.7364C27.7309 3.37581 27.8306 4.19099 27.5564 4.91804L24.4604 13.1644L23.7104 13.6644L22.488 12.8494C22.3198 12.7374 22.1011 12.7374 21.9329 12.8494L20.7104 13.6644L19.696 12.9881L23.355 3.24641ZM21.249 6.01008L18.5955 13.0736L18.2104 13.3304V6.97151L20.2104 4.97151L21.249 6.01008ZM15.2104 2.76448H19.7104V3.76448H15.2104V2.76448ZM14.9175 4.76448H19.0034L17.5034 6.26448H13.4175L14.9175 4.76448ZM7.87402 3.86751C7.97436 3.76399 8.1123 3.7054 8.25635 3.7054C8.40063 3.70564 8.53857 3.76399 8.63891 3.86751L9.37304 4.61751C9.51562 4.76301 9.73217 4.8072 9.92041 4.72981C10.1086 4.65217 10.2312 4.46809 10.23 4.26448V2.26448C10.2219 2.08699 10.312 1.91951 10.4644 1.82844C10.6169 1.73714 10.8071 1.73714 10.9595 1.82844C11.1121 1.91951 11.2021 2.08699 11.1938 2.26448V4.26448C11.1941 4.46736 11.3169 4.64998 11.5049 4.72664C11.6926 4.80354 11.9082 4.75911 12.0505 4.61458L12.7869 3.86458C12.9978 3.65681 13.3362 3.65681 13.5469 3.86458C13.7642 4.08699 13.7642 4.44197 13.5469 4.66438L12.074 6.16438L12.0889 6.17952L11.8569 6.41145C11.8166 6.45295 11.7842 6.50129 11.7605 6.55403C11.7534 6.56941 11.7495 6.58503 11.7439 6.6009C11.729 6.64363 11.72 6.68806 11.717 6.73298C11.717 6.74397 11.7109 6.753 11.7109 6.76399V11.1744C11.5972 11.2833 11.4915 11.4002 11.395 11.5245L10.4504 9.51448C10.1018 8.82087 9.47168 8.31062 8.72046 8.11457C8.54565 8.06941 8.36645 8.04206 8.18603 8.03352L8.05786 7.88337C7.95801 7.76887 7.88257 7.67952 7.87036 7.66706C7.74121 7.53181 7.6853 7.34236 7.72046 7.15852C7.73901 7.05403 7.78711 6.95735 7.85888 6.87947L7.86792 6.87092L7.88037 6.85749C8.06152 6.68 8.34204 6.65388 8.55298 6.79451C8.76513 6.93635 9.0498 6.89558 9.21386 6.70027C9.37793 6.50471 9.36841 6.21736 9.19189 6.03303L7.87036 4.66902C7.65576 4.44441 7.65747 4.09016 7.87402 3.86751ZM6.36548 10.5145C6.43066 10.0299 6.69897 9.59577 7.10351 9.32087C7.50464 9.04963 8.00293 8.96369 8.47192 9.08503C8.94067 9.20661 9.33471 9.52375 9.55346 9.95588L10.8279 12.6705C10.7964 12.7874 10.7715 12.9061 10.7534 13.0259L10.49 12.8499C10.322 12.7379 10.103 12.7379 9.93506 12.8499L8.71045 13.6644L7.60156 12.9244L7.49438 12.7901L8.78344 11.7935L8.17138 11.0025L6.87158 12.0079L6.7605 11.8695C6.44238 11.4945 6.29883 11.0018 6.36548 10.5145Z" fill="#BD1E51"/>
<path d="M1.77808 29.5174C2.15796 30.2838 2.94067 30.7674 3.7959 30.7645C4.14624 30.764 4.49145 30.6824 4.80493 30.5264L5.21045 30.3235L5.61645 30.5264C5.92969 30.6824 6.2749 30.764 6.625 30.7645C7.48047 30.7674 8.26294 30.2838 8.64306 29.5174L8.81738 29.1675C9.40283 27.9927 9.70849 26.6985 9.71045 25.386C9.70874 23.9388 8.53613 22.7662 7.08886 22.7645C6.60107 22.7659 6.12329 22.9044 5.71045 23.1644V22.7645C5.71045 21.66 4.81494 20.7645 3.71045 20.7645V21.7645C4.26269 21.7645 4.71045 22.2122 4.71045 22.7645V23.1644C4.29761 22.9044 3.81982 22.7659 3.33203 22.7645C1.88477 22.7662 0.712158 23.9388 0.710449 25.386C0.712158 26.6988 1.01782 27.9935 1.60352 29.1685L1.77808 29.5174ZM3.33203 23.7645C3.76221 23.7632 4.17505 23.9344 4.47851 24.2396L4.85693 24.618C5.05224 24.813 5.36865 24.813 5.56396 24.618L5.94238 24.2396C6.40625 23.7757 7.10351 23.637 7.70947 23.888C8.31543 24.139 8.71045 24.7303 8.71045 25.386C8.70923 26.5438 8.43969 27.6854 7.92285 28.7215L7.74853 29.0716C7.53637 29.4976 7.10083 29.7662 6.625 29.7645C6.43017 29.7642 6.23803 29.7188 6.06347 29.6319L5.43408 29.317C5.29321 29.2466 5.12768 29.2466 4.98706 29.317L4.35791 29.6319C4.18335 29.7188 3.99097 29.7642 3.7959 29.7645C3.31982 29.7659 2.88403 29.4966 2.67236 29.0699L2.49805 28.72C1.98144 27.6844 1.71191 26.5433 1.71045 25.386C1.71167 24.491 2.43701 23.7657 3.33203 23.7645Z" fill="#BD1E51"/>
</g>
<defs>
<clipPath id="clip0_96_5574">
<rect width="28.5" height="30" fill="white" transform="translate(0.460449 0.764465)"/>
</clipPath>
</defs>
</svg>
