<svg width="30" height="30" viewBox="0 0 30 30" fill="none" xmlns="http://www.w3.org/2000/svg">
<g clip-path="url(#clip0_96_5539)">
<path d="M23.5983 13.3125H13.0244V14.0625L13.2006 14.4375L14.0818 15.375L14.7867 15.75L15.1392 16.3125L14.9629 17.0625L13.7293 17.625L13.0244 18.9375L12.8481 22.875L13.3768 27.1875L13.7293 28.5L14.4342 29.25C14.6105 29.3125 15.0334 29.4375 15.3154 29.4375C15.6678 29.4375 17.2539 29.625 17.6064 29.625H19.5449H20.7786L20.4261 28.875C20.3086 28.5625 20.0736 27.825 20.0736 27.375C20.0736 26.925 19.9561 25.6875 19.8974 25.125V22.3125C19.8974 22.0125 20.2499 19.8125 20.4261 18.75V18.1875C20.4261 18 20.9548 18 21.131 17.8125C21.3073 17.625 21.836 17.625 22.0122 17.625C22.1884 17.625 22.7171 17.4375 22.8933 17.4375C23.0696 17.4375 22.7171 17.25 22.5409 17.0625C22.3646 16.875 22.5409 16.875 22.5409 16.6875C22.5409 16.5 22.5409 16.125 22.3646 15.9375C22.2237 15.7875 22.6584 15.5 22.8933 15.375C23.0696 15.3125 23.422 15.15 23.422 15C23.422 14.85 23.7745 14.6875 23.9507 14.625L24.3032 14.0625V13.5L23.5983 13.3125Z" fill="#FDC040"/>
<path d="M3.52832 23.0973C3.52832 24.0366 4.24652 24.8007 5.12927 24.8007C6.01208 24.8007 6.73028 24.0366 6.73028 23.0973C6.73028 22.1581 6.01208 21.394 5.12927 21.394C4.24652 21.394 3.52832 22.1581 3.52832 23.0973ZM5.90425 23.0973C5.90425 23.552 5.55663 23.9218 5.12933 23.9218C4.70202 23.9218 4.35446 23.552 4.35446 23.0973C4.35446 22.6427 4.70208 22.2729 5.12933 22.2729C5.55658 22.2729 5.90425 22.6428 5.90425 23.0973Z" fill="#BD1E51"/>
<path d="M7.1645 20.7492C7.85951 20.7492 8.42499 20.1477 8.42499 19.4082C8.42499 18.6688 7.85951 18.0672 7.1645 18.0672C6.46948 18.0672 5.90405 18.6688 5.90405 19.4082C5.90405 20.1477 6.46948 20.7492 7.1645 20.7492ZM7.1645 18.946C7.40406 18.946 7.59891 19.1533 7.59891 19.4081C7.59891 19.663 7.40406 19.8703 7.1645 19.8703C6.92499 19.8703 6.73014 19.663 6.73014 19.4081C6.73014 19.1533 6.92504 18.946 7.1645 18.946Z" fill="#BD1E51"/>
<path d="M11.5601 26.249C11.5601 25.5096 10.9946 24.908 10.2996 24.908C9.60455 24.908 9.03906 25.5096 9.03906 26.249C9.03906 26.9885 9.60455 27.5901 10.2996 27.5901C10.9946 27.5901 11.5601 26.9885 11.5601 26.249ZM9.8652 26.249C9.8652 25.9942 10.06 25.7869 10.2996 25.7869C10.5392 25.7869 10.734 25.9942 10.734 26.249C10.734 26.5038 10.5392 26.7112 10.2996 26.7112C10.06 26.7112 9.8652 26.5038 9.8652 26.249Z" fill="#BD1E51"/>
<path d="M28.1798 18.8348C28.0608 17.9143 27.3134 17.2201 26.4412 17.2201H26.1486L26.4305 16.4401C26.5124 16.2136 26.4062 15.9593 26.1932 15.8722C25.9802 15.785 25.7413 15.8982 25.6595 16.1246L25.2636 17.2201H23.5447C23.4865 17.1904 23.4276 17.1625 23.3676 17.1387C22.9382 16.9684 22.7205 16.7031 22.7205 16.3505C22.7205 16.0218 23.2427 15.7552 23.4676 15.6557C24.1349 15.3594 24.6132 14.7328 24.7471 13.9792C25.0243 12.4143 25.1502 10.7399 25.2006 9.88055C25.2263 9.4343 25.1314 8.99771 24.9261 8.61803C23.8478 6.62326 21.8945 5.265 21.2412 4.84922V3.44391H21.2627C21.4909 3.44391 21.6758 3.24715 21.6758 3.00445V1.42424C21.6758 0.638906 21.0752 0 20.3371 0H17.0659C16.3278 0 15.7273 0.638906 15.7273 1.42424V3.00445C15.7273 3.24715 15.9121 3.44391 16.1403 3.44391H16.1619V4.84904C15.7403 5.11734 14.7771 5.77869 13.8572 6.74982V6.4415C14.3276 6.17068 14.6479 5.64088 14.6479 5.03291C14.6479 4.15043 13.9731 3.43254 13.1437 3.43254H6.61735C5.78791 3.43254 5.11316 4.15049 5.11316 5.03291C5.11316 5.641 5.43363 6.17092 5.90428 6.44168V7.78623C5.33891 8.13715 3.80299 9.18023 2.44998 10.9095C2.20689 11.2211 2.05197 11.5991 2.00196 12.003C1.93472 12.5465 1.83394 13.4338 1.7358 14.5743C1.71498 14.816 1.88229 15.0299 2.10946 15.052C2.12224 15.0533 2.13496 15.0539 2.14757 15.0539C2.35867 15.0539 2.53881 14.8826 2.55841 14.6545C2.65534 13.5283 2.75464 12.6533 2.82094 12.1178C2.84253 11.9435 2.89727 11.7778 2.98054 11.6296H12.3409C12.4137 12.3606 12.5155 13.1843 12.656 13.9789C12.7891 14.7325 13.2675 15.3594 13.9359 15.6558C14.1602 15.7551 14.6821 16.0216 14.6821 16.3504C14.6821 16.7033 14.4646 16.9685 14.0354 17.1387C13.2646 17.445 12.7212 18.2005 12.651 19.0634C12.4884 21.0537 12.3677 24.9052 13.3867 28.3368C13.4725 28.6259 13.6063 28.8872 13.7768 29.1128C13.6975 29.118 13.618 29.1212 13.5382 29.1212H6.22249C4.22556 29.1212 2.54674 27.4644 2.40047 25.3495C2.21157 22.6177 2.22065 19.6053 2.42756 16.396C2.44315 16.1538 2.27132 15.9441 2.04376 15.9275C1.81637 15.9107 1.61899 16.0937 1.6034 16.3358C1.39385 19.5865 1.38482 22.6408 1.57664 25.4139C1.6631 26.6648 2.18734 27.8237 3.05274 28.6774C3.91738 29.5303 5.04311 30 6.22249 30H13.5383C13.9374 30 14.3325 29.9461 14.7152 29.8402C14.9685 29.9436 15.2427 29.9997 15.5275 29.9997L26.4412 30C27.3134 30 28.0608 29.3058 28.1798 28.3852C28.5892 25.2166 28.5892 22.0035 28.1798 18.8348ZM27.6222 25.2708C27.2932 25.4849 26.9189 25.5976 26.5287 25.5976C25.3711 25.5976 24.4294 24.5958 24.4294 23.3646C24.4294 22.133 25.3712 21.131 26.5287 21.131C26.9083 21.131 27.2732 21.2376 27.5951 21.4403C27.6712 22.7158 27.6805 23.9946 27.6222 25.2708ZM24.3761 9.82623C24.3367 10.4978 24.2501 11.6791 24.0791 12.9028H13.3243C13.1536 11.6803 13.0663 10.4984 13.0265 9.82676C13.0107 9.55254 13.0682 9.28629 13.193 9.05602C13.2434 8.96279 13.2963 8.87109 13.3509 8.78074H24.052C24.1067 8.87109 24.1596 8.96285 24.21 9.05607C24.3345 9.28623 24.3918 9.55272 24.3761 9.82623ZM6.73036 6.63334H13.0311V7.60418H6.73036V6.63334ZM16.5533 1.42424C16.5533 1.12354 16.7833 0.878906 17.0659 0.878906H20.3371C20.6197 0.878906 20.8497 1.12354 20.8497 1.42424V2.565H16.5533V1.42424ZM20.4151 3.44391V4.66377H16.988V3.44391H20.4151ZM16.6839 5.54268H20.7192C21.0679 5.75941 22.3785 6.61898 23.4272 7.90189H13.9757C15.0244 6.61875 16.3355 5.75912 16.6839 5.54268ZM6.61735 4.31145H13.1437C13.5176 4.31145 13.8219 4.63512 13.8219 5.03291C13.8219 5.43059 13.5179 5.75408 13.1442 5.75437H6.6168C6.24308 5.75408 5.93919 5.43053 5.93919 5.03291C5.93919 4.63512 6.24341 4.31145 6.61735 4.31145ZM3.69703 10.7507C4.88902 9.45053 6.09786 8.67937 6.42356 8.4832H12.5523C12.5271 8.52773 12.5017 8.57215 12.4773 8.61732C12.2715 8.99678 12.1763 9.43354 12.202 9.88131C12.216 10.1163 12.2357 10.4127 12.2624 10.7507H3.69703ZM26.4412 29.1211H21.8756V29.1208H21.586C21.1268 29.1179 20.7341 28.7513 20.6713 28.2656C20.6063 27.7618 20.5516 27.2549 20.5087 26.7588C20.4878 26.5171 20.2868 26.3389 20.0596 26.3614C19.8325 26.3836 19.6653 26.5975 19.6861 26.8392C19.7301 27.3483 19.7863 27.8684 19.8529 28.3852C19.8876 28.6536 19.976 28.9025 20.1051 29.1207H15.5275C14.9044 29.1207 14.3606 28.6993 14.1745 28.072C13.1986 24.7853 13.3167 21.0647 13.474 19.1392C13.5169 18.6124 13.8507 18.1503 14.3242 17.9621C15.0766 17.6636 15.5082 17.0762 15.5082 16.3504C15.5082 15.9167 15.2905 15.3033 14.2535 14.8444C13.8431 14.6624 13.5494 14.2781 13.4679 13.8164C13.4658 13.8049 13.4638 13.7932 13.4619 13.7817H23.9413C23.9393 13.7931 23.9373 13.8046 23.9353 13.8161C23.8532 14.278 23.5595 14.6624 23.1499 14.8443C22.1121 15.3036 21.8943 15.9168 21.8943 16.3504C21.8943 16.6719 21.9793 16.966 22.1391 17.2201H21.5914C20.7192 17.2201 19.9718 17.9143 19.8528 18.8348C19.5862 20.8945 19.4926 22.9932 19.5745 25.0725C19.5841 25.315 19.7788 25.503 20.0044 25.4931C20.2324 25.483 20.4095 25.2782 20.3999 25.0357C20.3201 23.0087 20.4113 20.9627 20.6712 18.9546C20.7343 18.4669 21.1299 18.099 21.5915 18.099H26.4412C26.9028 18.099 27.2983 18.4669 27.3615 18.9545C27.4251 19.4471 27.4774 19.941 27.5208 20.4354C27.2057 20.3146 26.8714 20.2521 26.5287 20.2521C24.9156 20.2521 23.6033 21.6483 23.6033 23.3646C23.6033 25.0805 24.9156 26.4765 26.5287 26.4765C26.8865 26.4765 27.2347 26.4086 27.5617 26.2771C27.5128 26.9413 27.4469 27.6044 27.3615 28.2654C27.2983 28.7532 26.9028 29.1211 26.4412 29.1211Z" fill="#BD1E51"/>
</g>
<defs>
<clipPath id="clip0_96_5539">
<rect width="28.197" height="30" fill="white" transform="translate(0.864502)"/>
</clipPath>
</defs>
</svg>
